<svg width="21" height="15" viewBox="0 0 21 15" fill="none" xmlns="http://www.w3.org/2000/svg">
<path d="M6.80471 0C6.09334 0 3.94866 0.839443 3.56399 1.00725C3.17933 1.17506 2.75212 1.69883 2.26733 2.5633C1.78255 3.42777 1.39295 4.43797 0.760619 5.9244C0.12829 7.41083 -0.0191716 10.277 0.0019057 11.1517C0.0229833 12.0263 0.126817 12.709 1.05544 13.2264C1.98407 13.7438 2.80507 14.2844 3.66925 14.6099C4.53343 14.9353 5.12341 15.169 5.52388 14.8436C5.92436 14.5181 6.18805 13.9487 6.18805 13.9487C6.18805 13.9487 6.56748 13.4403 5.85084 13.1352C5.13421 12.8301 4.77594 12.6162 4.80756 12.301C4.83917 11.9857 4.89154 11.8131 5.07071 11.8537C5.24987 11.8944 5.6717 12.6265 7.29468 12.9621C8.91766 13.2977 10.5 13.2471 10.5 13.2471C10.5 13.2471 12.0823 13.2977 13.7053 12.9621C15.3283 12.6265 15.7501 11.8944 15.9293 11.8537C16.1085 11.8131 16.1608 11.9857 16.1924 12.301C16.2241 12.6162 15.8658 12.8301 15.1492 13.1352C14.4325 13.4403 14.8119 13.9487 14.8119 13.9487C14.8119 13.9487 15.0756 14.5181 15.4761 14.8436C15.8766 15.169 16.4666 14.9353 17.3307 14.6099C18.1949 14.2844 19.0159 13.7438 19.9446 13.2264C20.8732 12.709 20.977 12.0263 20.9981 11.1517C21.0192 10.277 20.8717 7.41083 20.2394 5.9244C19.6071 4.43797 19.2175 3.42777 18.7327 2.5633C18.2479 1.69883 17.8207 1.17506 17.436 1.00725C17.0513 0.839443 14.9067 0 14.1953 0C13.4839 0 13.2736 0.478231 13.2736 0.478231L13.0258 1.00725C13.0258 1.00725 11.3595 0.701755 10.5109 0.701317C9.6624 0.700879 7.97422 1.00725 7.97422 1.00725L7.72644 0.478231C7.72644 0.478231 7.51608 0 6.80471 0V0ZM6.88202 6.34645C6.89072 6.34639 6.89941 6.34639 6.9081 6.34645C7.94525 6.34645 8.78602 7.22221 8.78602 8.30252C8.78602 9.38283 7.94525 10.2586 6.9081 10.2586C5.87096 10.2586 5.03018 9.38283 5.03018 8.30252C5.03008 7.23273 5.85507 6.36131 6.88202 6.34645H6.88202ZM14.0919 6.34645C14.1006 6.34639 14.1093 6.34639 14.118 6.34645C15.1449 6.36131 15.9699 7.23273 15.9698 8.30252C15.9698 9.38283 15.129 10.2586 14.0919 10.2586C13.0547 10.2586 12.214 9.38283 12.214 8.30252C12.214 7.22221 13.0547 6.34645 14.0919 6.34645H14.0919Z" fill="white"/>
</svg>
