<svg width="19" height="22" viewBox="0 0 19 22" fill="none" xmlns="http://www.w3.org/2000/svg">
<path d="M6.91515 11.8274H8.96236C13.4097 11.8274 15.9333 9.84378 16.7366 5.76522C16.7625 5.63078 16.786 5.50122 16.8057 5.37167C16.8501 5.09544 16.8723 4.84733 16.8822 4.609C16.8896 4.44522 16.8946 4.34867 16.8933 4.25822C16.8921 3.82143 16.8014 3.38943 16.6268 2.98833C16.4676 2.62656 16.227 2.27089 15.8703 1.86633C14.8177 0.680778 12.984 0 10.7936 0H3.81779C3.58007 0.000285443 3.35023 0.0844798 3.16953 0.237472C2.98883 0.390463 2.8691 0.602235 2.83182 0.834778L1.57314 8.866L0.0071843 18.8699C-0.0061745 18.9546 -0.000859677 19.0412 0.0227636 19.1237C0.0463869 19.2061 0.0877585 19.2826 0.144036 19.3477C0.200314 19.4129 0.270164 19.4652 0.348787 19.5011C0.42741 19.5369 0.512942 19.5555 0.599507 19.5556H4.02017L5.06784 13.3919C5.13577 12.9553 5.35954 12.5574 5.69851 12.2703C6.03748 11.9832 6.46916 11.8261 6.91515 11.8274ZM18.1483 6.22111C17.171 10.8301 14.0057 13.2758 8.96113 13.2758H6.91515C6.81716 13.2756 6.72237 13.3103 6.64806 13.3736C6.57376 13.4368 6.5249 13.5245 6.51039 13.6204L5.14682 22H8.73407C8.94206 22.0002 9.14327 21.9268 9.30143 21.793C9.45959 21.6592 9.56428 21.4738 9.59664 21.2703L9.63243 21.087L10.3173 16.7921L10.3617 16.555C10.3941 16.3515 10.4988 16.1662 10.6569 16.0324C10.8151 15.8986 11.0163 15.8252 11.2243 15.8253H11.7673C15.2842 15.8253 18.0372 14.41 18.8418 10.318C19.1725 8.63133 19.0047 7.22089 18.1483 6.22111V6.22111Z" fill="white"/>
</svg>
