<svg width="22" height="22" viewBox="0 0 22 22" fill="none" xmlns="http://www.w3.org/2000/svg">
<path d="M11 22C4.93281 22 0 17.0672 0 11C0 4.93281 4.93281 0 11 0C17.0672 0 22 4.93281 22 11C22 17.0672 17.0672 22 11 22Z" fill="white"/>
<path d="M16.2078 12.2715C16.1219 11.6527 15.8125 11.1715 15.2797 10.8621C15.0391 10.7246 14.7469 10.6215 14.4719 10.5012C14.5062 10.484 14.5234 10.4496 14.5406 10.4496C15.8984 9.74492 15.7781 7.64805 14.7984 6.92617C14.4031 6.63398 13.9563 6.44492 13.475 6.3418C13.1313 6.27305 12.8047 6.22148 12.4438 6.15273C12.4438 5.55117 12.4609 4.6918 12.4609 4.02148H11.1719C11.1719 4.67461 11.1547 5.5168 11.1547 6.10117H10.1406C10.1406 5.49961 10.1406 4.67461 10.1578 4.02148H8.88594C8.88594 4.70898 8.86875 5.53398 8.86875 6.13555C7.99219 6.13555 7.15 6.11836 6.29062 6.11836C6.29062 6.58242 6.29062 7.0293 6.27344 7.47617H6.78906C6.94375 7.47617 7.11562 7.47617 7.27031 7.49336C7.71719 7.52773 7.94063 7.76836 7.94063 8.21523L7.88906 13.698C7.88906 14.0934 7.71719 14.2652 7.32187 14.2652H6.4625C6.37656 14.7809 6.29063 15.2793 6.1875 15.7949C7.04688 15.8121 7.90625 15.8121 8.76562 15.8293C8.76562 16.4824 8.76563 17.3246 8.74844 18.0121H10.0203C10.0203 17.3246 10.0375 16.5168 10.0375 15.8637C10.3984 15.8809 10.725 15.8809 11.0516 15.898C11.0516 16.5512 11.0344 17.3418 11.0344 18.0121H12.3062C12.3062 17.3246 12.3234 16.5168 12.3234 15.8809C12.375 15.8809 12.4094 15.8637 12.4266 15.8637C13.0281 15.7605 13.6641 15.709 14.2484 15.5715C15.0219 15.3824 15.6406 14.9355 15.95 14.1621C16.2422 13.5434 16.2938 12.9246 16.2078 12.2715ZM10.1406 7.61367C10.9313 7.61367 11.7047 7.54492 12.4438 7.87148C12.925 8.07773 13.1656 8.47305 13.1313 8.9543C13.0969 9.45273 12.8047 9.81367 12.3062 9.98555C11.6016 10.209 10.8797 10.209 10.1234 10.1746C10.1234 9.31523 10.1406 8.49023 10.1406 7.61367ZM12.925 13.9902C12.2203 14.2996 11.4641 14.2996 10.725 14.3168C10.5188 14.3168 10.3125 14.2996 10.0719 14.2996C10.0891 13.3543 10.0891 12.4262 10.1062 11.4809C11.0687 11.4809 12.0313 11.4121 12.9422 11.8074C13.4063 12.0137 13.6812 12.3746 13.6812 12.9074C13.6812 13.4402 13.4062 13.784 12.925 13.9902Z" fill="#282828"/>
</svg>
