<svg width="16" height="16" viewBox="0 0 16 16" fill="none" xmlns="http://www.w3.org/2000/svg">
<path d="M15.548 9.72394C15.6618 9.19117 15.7186 8.64778 15.7172 8.10297C15.7116 7.10678 15.5096 6.12146 15.1229 5.20336C14.7361 4.28526 14.1722 3.45238 13.4634 2.75234C12.7545 2.05229 11.9146 1.49882 10.9917 1.12355C10.0687 0.748288 9.08087 0.558592 8.08458 0.565311C7.64872 0.564191 7.21363 0.602149 6.78455 0.678729C6.11841 0.260215 5.3528 0.0266834 4.56646 0.0021539C3.78012 -0.0223757 3.00144 0.162982 2.3105 0.539163C1.61956 0.915344 1.04132 1.46877 0.635234 2.14252C0.22915 2.81626 0.00988846 3.58601 0 4.37259C0.000503839 5.14807 0.208667 5.90928 0.602865 6.57712C0.505062 7.07374 0.454524 7.57851 0.451929 8.08466C0.460281 9.07397 0.665073 10.0518 1.05442 10.9613C1.44376 11.8708 2.0099 12.694 2.71998 13.383C3.43005 14.072 4.26992 14.6131 5.19083 14.9749C6.11175 15.3367 7.09536 15.512 8.08458 15.4906C8.55263 15.4941 9.01981 15.4497 9.4788 15.3579C10.1122 15.742 10.8313 15.9624 11.5711 15.9992C12.3175 16.0133 13.055 15.835 13.7125 15.4814C14.37 15.1277 14.9253 14.6107 15.3249 13.9801C15.7245 13.3496 15.955 12.6267 15.994 11.8813C16.0331 11.1358 15.8795 10.3928 15.548 9.72394V9.72394ZM11.5519 11.1939C11.2208 11.6377 10.7697 11.9776 10.2519 12.1737C9.61108 12.4287 8.92497 12.5504 8.23551 12.5313C7.43462 12.5573 6.63931 12.3894 5.91727 12.0419C5.49494 11.817 5.13286 11.4939 4.8615 11.0998C4.62063 10.7704 4.48306 10.3768 4.46628 9.9691C4.46438 9.8655 4.48538 9.76275 4.52776 9.66819C4.57014 9.57363 4.63286 9.48959 4.71146 9.42205C4.88085 9.26815 5.10395 9.18699 5.33264 9.19609C5.51763 9.18845 5.69898 9.249 5.84227 9.36624C5.99947 9.51285 6.12171 9.69291 6.19995 9.89312C6.29674 10.1441 6.43025 10.3793 6.59612 10.5911C6.74783 10.7902 6.94908 10.946 7.17979 11.043C7.49563 11.1761 7.8362 11.2403 8.17882 11.2314C8.66349 11.258 9.14439 11.133 9.55478 10.8738C9.71322 10.7812 9.84506 10.6493 9.93754 10.4908C10.03 10.3323 10.08 10.1526 10.0826 9.9691C10.0881 9.83946 10.0656 9.71017 10.0169 9.58994C9.96812 9.4697 9.89415 9.3613 9.79996 9.27206C9.59241 9.07555 9.33984 8.93294 9.06437 8.8567C8.76342 8.76251 8.34802 8.66828 7.8394 8.55578C7.25527 8.43224 6.68195 8.26216 6.12495 8.04717C5.69682 7.87563 5.32024 7.59647 5.03168 7.23671C4.75873 6.8738 4.61887 6.42809 4.63556 5.97432C4.63502 5.51103 4.78747 5.06052 5.06923 4.69274C5.38848 4.29491 5.81285 3.99449 6.2942 3.82558C6.90519 3.61023 7.55038 3.50824 8.19802 3.52461C8.70807 3.51808 9.21625 3.58776 9.70572 3.73135C10.0865 3.84165 10.444 4.02051 10.7605 4.25915C11.0128 4.44717 11.2244 4.68427 11.3827 4.95619C11.5036 5.16881 11.5684 5.40869 11.5711 5.65327C11.5714 5.7593 11.5498 5.86425 11.5076 5.96153C11.4654 6.05881 11.4035 6.14633 11.3259 6.21858C11.2485 6.29976 11.1547 6.36359 11.0508 6.40585C10.9468 6.44812 10.8351 6.46784 10.723 6.46373C10.541 6.4745 10.361 6.42109 10.2144 6.31281C10.063 6.17127 9.93565 6.00597 9.83746 5.82343C9.68749 5.52442 9.47539 5.26087 9.21536 5.05042C8.86676 4.83234 8.45683 4.73316 8.04708 4.76777C7.62395 4.74805 7.20435 4.85302 6.84037 5.06966C6.70966 5.13995 6.59936 5.24284 6.52017 5.36835C6.44098 5.49386 6.3956 5.63771 6.38844 5.78594C6.38945 5.94877 6.44232 6.10705 6.53938 6.23782C6.65612 6.37781 6.80487 6.48762 6.97304 6.55796C7.14481 6.65166 7.32854 6.72152 7.51917 6.76562C7.70765 6.82236 8.0096 6.89735 8.44227 6.99159C8.97013 7.10501 9.46053 7.23675 9.89415 7.36843C10.2868 7.48473 10.661 7.65596 11.0057 7.87704C11.2993 8.06993 11.5444 8.32786 11.722 8.63081C11.9036 8.97293 11.9944 9.35594 11.9855 9.74316C12.0079 10.2617 11.8552 10.7727 11.5519 11.1939Z" fill="white"/>
</svg>
