<svg width="102" height="16" viewBox="0 0 102 16" fill="none" xmlns="http://www.w3.org/2000/svg">
<path d="M15.9356 6.08815C16.0153 5.68976 15.6965 5.21169 15.2982 5.21169L10.7565 4.57427L8.68489 0.431021C8.60521 0.271665 8.52554 0.191987 8.36618 0.112309C7.96779 -0.126725 7.48972 0.0326313 7.25069 0.431021L5.25874 4.57427L0.717101 5.21169C0.478068 5.21169 0.318712 5.29137 0.239034 5.45073C-0.0796779 5.76944 -0.0796779 6.24751 0.239034 6.56622L3.50583 9.75333L2.70905 14.295C2.70905 14.4543 2.70905 14.6137 2.78873 14.773C3.02776 15.1714 3.50583 15.3308 3.90422 15.0918L7.96779 12.9405L12.0314 15.0918C12.111 15.1714 12.2704 15.1714 12.4298 15.1714C12.5094 15.1714 12.5094 15.1714 12.5891 15.1714C12.9875 15.0918 13.3062 14.6934 13.2265 14.2153L12.4298 9.67366L15.6965 6.48654C15.8559 6.40686 15.9356 6.24751 15.9356 6.08815Z" fill="#239350"/>
<path d="M37.4488 6.08815C37.5284 5.68976 37.2097 5.21169 36.8113 5.21169L32.2697 4.57427L30.1981 0.431021C30.1184 0.271665 30.0387 0.191987 29.8794 0.112309C29.481 -0.126725 29.0029 0.0326313 28.7639 0.431021L26.7719 4.57427L22.2303 5.21169C21.9913 5.21169 21.8319 5.29137 21.7522 5.45073C21.4335 5.76944 21.4335 6.24751 21.7522 6.56622L25.019 9.75333L24.2222 14.295C24.2222 14.4543 24.2222 14.6137 24.3019 14.773C24.5409 15.1714 25.019 15.3308 25.4174 15.0918L29.481 12.9405L33.5445 15.0918C33.6242 15.1714 33.7836 15.1714 33.9429 15.1714C34.0226 15.1714 34.0226 15.1714 34.1023 15.1714C34.5007 15.0918 34.8194 14.6934 34.7397 14.2153L33.9429 9.67366L37.2097 6.48654C37.3691 6.40686 37.4488 6.24751 37.4488 6.08815Z" fill="#939393"/>
<path d="M58.9615 6.08815C59.0411 5.68976 58.7224 5.21169 58.324 5.21169L53.7824 4.57427L51.7108 0.431021C51.6311 0.271665 51.5514 0.191987 51.3921 0.112309C50.9937 -0.126725 50.5156 0.0326313 50.2766 0.431021L48.2846 4.57427L43.743 5.21169C43.5039 5.21169 43.3446 5.29137 43.2649 5.45073C42.9462 5.76944 42.9462 6.24751 43.2649 6.56622L46.5317 9.75333L45.7349 14.295C45.7349 14.4543 45.7349 14.6137 45.8146 14.773C46.0536 15.1714 46.5317 15.3308 46.9301 15.0918L50.9937 12.9405L55.0572 15.0918C55.1369 15.1714 55.2963 15.1714 55.4556 15.1714C55.5353 15.1714 55.5353 15.1714 55.615 15.1714C56.0134 15.0918 56.3321 14.6934 56.2524 14.2153L55.4556 9.67366L58.7224 6.48654C58.8818 6.40686 58.9615 6.24751 58.9615 6.08815Z" fill="#939393"/>
<path d="M80.4746 6.88503C80.5543 6.48664 80.2356 6.00857 79.8372 6.00857L75.2956 5.37115L73.224 1.2279C73.1443 1.06854 73.0646 0.988862 72.9052 0.909184C72.5069 0.67015 72.0288 0.829506 71.7898 1.2279L69.7978 5.37115L65.2562 6.00857C65.0171 6.00857 64.8578 6.08825 64.7781 6.2476C64.4594 6.56632 64.4594 7.04438 64.7781 7.36309L68.0449 10.5502L67.2481 15.0919C67.2481 15.2512 67.2481 15.4106 67.3278 15.5699C67.5668 15.9683 68.0449 16.1277 68.4433 15.8886L72.5069 13.7373L76.5704 15.8886C76.6501 15.9683 76.8095 15.9683 76.9688 15.9683C77.0485 15.9683 77.0485 15.9683 77.1282 15.9683C77.5266 15.8886 77.8453 15.4902 77.7656 15.0122L76.9688 10.4705L80.2356 7.28342C80.395 7.20374 80.4746 7.04438 80.4746 6.88503Z" fill="#939393"/>
<path d="M101.988 6.88503C102.068 6.48664 101.749 6.00857 101.35 6.00857L96.8088 5.37115L94.7371 1.2279C94.6575 1.06854 94.5778 0.988862 94.4184 0.909184C94.02 0.67015 93.542 0.829506 93.3029 1.2279L91.311 5.37115L86.7693 6.00857C86.5303 6.00857 86.371 6.08825 86.2913 6.2476C85.9726 6.56632 85.9726 7.04438 86.2913 7.36309L89.5581 10.5502L88.7613 15.0919C88.7613 15.2512 88.7613 15.4106 88.841 15.5699C89.08 15.9683 89.5581 16.1277 89.9565 15.8886L94.02 13.7373L98.0836 15.8886C98.1633 15.9683 98.3226 15.9683 98.482 15.9683C98.5617 15.9683 98.5617 15.9683 98.6414 15.9683C99.0397 15.8886 99.3585 15.4902 99.2788 15.0122L98.482 10.4705L101.749 7.28342C101.908 7.20374 101.988 7.04438 101.988 6.88503Z" fill="#939393"/>
</svg>
