<svg width="18" height="18" viewBox="0 0 18 18" fill="none" xmlns="http://www.w3.org/2000/svg">
<path d="M17.4915 10.9394C17.6196 10.3401 17.6834 9.72875 17.6819 9.11585C17.6755 7.99512 17.4483 6.88664 17.0132 5.85378C16.5782 4.82092 15.9437 3.88393 15.1463 3.09638C14.3488 2.30883 13.4039 1.68617 12.3656 1.264C11.3273 0.841824 10.216 0.628416 9.09515 0.635975C8.60481 0.634714 8.11534 0.677417 7.63262 0.76357C6.88321 0.292742 6.0219 0.0300189 5.13727 0.00242313C4.25263 -0.0251726 3.37662 0.183355 2.59931 0.606558C1.82201 1.02976 1.17148 1.65236 0.714638 2.41033C0.257794 3.16829 0.0111245 4.03426 0 4.91916C0.000566819 5.79158 0.234751 6.64794 0.678224 7.39926C0.568194 7.95796 0.511339 8.52583 0.50842 9.09525C0.517816 10.2082 0.748207 11.3082 1.18622 12.3315C1.62423 13.3547 2.26114 14.2807 3.05997 15.0558C3.85881 15.831 4.80366 16.4397 5.83969 16.8467C6.87572 17.2538 7.98228 17.451 9.09515 17.4269C9.62171 17.4309 10.1473 17.3809 10.6636 17.2777C11.3762 17.7097 12.1852 17.9577 13.0175 17.9991C13.8572 18.015 14.6869 17.8144 15.4266 17.4165C16.1663 17.0187 16.791 16.437 17.2405 15.7277C17.6901 15.0183 17.9493 14.2051 17.9933 13.3664C18.0373 12.5278 17.8644 11.6919 17.4915 10.9394ZM12.9958 12.5932C12.6234 13.0924 12.116 13.4748 11.5334 13.6954C10.8125 13.9823 10.0406 14.1192 9.26495 14.0977C8.36395 14.127 7.46922 13.9381 6.65693 13.5472C6.18181 13.2941 5.77446 12.9306 5.46919 12.4872C5.1982 12.1166 5.04345 11.6739 5.02456 11.2152C5.02243 11.0987 5.04605 10.9831 5.09373 10.8767C5.1414 10.7703 5.21197 10.6758 5.30039 10.5998C5.49095 10.4267 5.74194 10.3354 5.99922 10.3456C6.20733 10.337 6.41135 10.4051 6.57255 10.537C6.74941 10.702 6.88693 10.9045 6.97495 11.1298C7.08383 11.4121 7.23403 11.6768 7.42063 11.915C7.59131 12.139 7.81771 12.3142 8.07726 12.4234C8.43258 12.5731 8.81573 12.6454 9.20117 12.6354C9.74642 12.6652 10.2874 12.5246 10.7491 12.233C10.9274 12.1288 11.0757 11.9804 11.1797 11.8021C11.2838 11.6238 11.34 11.4217 11.343 11.2152C11.3491 11.0694 11.3238 10.9239 11.269 10.7887C11.2141 10.6534 11.1309 10.5315 11.025 10.4311C10.7915 10.21 10.5073 10.0496 10.1974 9.96379C9.85885 9.85782 9.39153 9.75182 8.81933 9.62526C8.16218 9.48627 7.5172 9.29493 6.89057 9.05307C6.40893 8.86009 5.98527 8.54603 5.66064 8.1413C5.35357 7.73303 5.19623 7.2316 5.21501 6.72111C5.2144 6.19991 5.3859 5.69309 5.70288 5.27933C6.06204 4.83177 6.53946 4.4938 7.08097 4.30378C7.76834 4.06151 8.49418 3.94676 9.22277 3.96519C9.79658 3.95784 10.3683 4.03623 10.9189 4.19777C11.3473 4.32185 11.7495 4.52308 12.1056 4.79155C12.3894 5.00307 12.6275 5.26981 12.8055 5.57572C12.9415 5.81492 13.0145 6.08478 13.0175 6.35993C13.0178 6.47922 12.9935 6.59729 12.946 6.70673C12.8986 6.81617 12.829 6.91462 12.7417 6.9959C12.6546 7.08723 12.5491 7.15904 12.4321 7.20659C12.3152 7.25413 12.1895 7.27632 12.0634 7.2717C11.8587 7.28381 11.6562 7.22373 11.4912 7.10192C11.3208 6.94268 11.1776 6.75671 11.0671 6.55136C10.8984 6.21497 10.6598 5.91848 10.3673 5.68172C9.9751 5.43638 9.51393 5.32481 9.05296 5.36374C8.57695 5.34155 8.1049 5.45965 7.69542 5.70337C7.54837 5.78244 7.42428 5.8982 7.33519 6.03939C7.2461 6.18059 7.19505 6.34243 7.187 6.50918C7.18814 6.69237 7.24761 6.87044 7.3568 7.01755C7.48814 7.17504 7.65548 7.29857 7.84467 7.37771C8.03791 7.48312 8.24461 7.56171 8.45907 7.61133C8.67111 7.67515 9.0108 7.75952 9.49755 7.86554C10.0914 7.99313 10.6431 8.14134 11.1309 8.28948C11.5727 8.42032 11.9937 8.61296 12.3815 8.86167C12.7117 9.07867 12.9874 9.36884 13.1873 9.70966C13.3916 10.0945 13.4937 10.5254 13.4837 10.9611C13.5089 11.5444 13.3371 12.1193 12.9958 12.5932Z" fill="#3CAEF2"/>
</svg>
