<svg width="82" height="82" viewBox="0 0 82 82" fill="none" xmlns="http://www.w3.org/2000/svg">
<path d="M12.9835 58.7667C16.3801 58.7667 19.1335 56.0132 19.1335 52.6166C19.1335 49.2201 16.3801 46.4666 12.9835 46.4666C9.58695 46.4666 6.8335 49.2201 6.8335 52.6166C6.8335 56.0132 9.58695 58.7667 12.9835 58.7667Z" fill="#F0C9AE"/>
<path d="M21.8667 82.0001V68.3334L32.8001 60.1334L39.6335 47.8333L34.1668 45.1L27.3334 54.6667L21.8667 58.7667H5.46669C4.01683 58.7667 2.62636 59.3427 1.60116 60.3679C0.575953 61.3931 0 62.7835 0 64.2334V82.0001H21.8667Z" fill="#239350"/>
<path d="M6.14962 65.6001H4.09961V82.0001H6.14962V65.6001Z" fill="#1D1D1D"/>
<path d="M56.1385 51.7228H58.675C58.9886 51.723 59.2991 51.6614 59.5888 51.5416C59.8786 51.4218 60.1419 51.246 60.3637 51.0245C60.5855 50.8029 60.7615 50.5398 60.8817 50.2502C61.0018 49.9606 61.0638 49.6501 61.064 49.3366C61.0602 48.8217 61.2204 48.3191 61.5214 47.9013C61.8224 47.4836 62.2485 47.1726 62.7381 47.0133C64.0094 46.6161 65.2418 46.1038 66.4199 45.4826C66.8797 45.247 67.4026 45.1642 67.9126 45.2463C68.4227 45.3284 68.8932 45.5711 69.2558 45.9391C69.4775 46.161 69.7409 46.3371 70.0307 46.4573C70.3205 46.5774 70.6312 46.6393 70.945 46.6393C71.2588 46.6393 71.5694 46.5774 71.8593 46.4573C72.1491 46.3371 72.4125 46.161 72.6342 45.9391L76.2217 42.3515C76.4437 42.1298 76.6198 41.8665 76.74 41.5766C76.8601 41.2868 76.922 40.9761 76.922 40.6623C76.922 40.3486 76.8601 40.0379 76.74 39.748C76.6198 39.4582 76.4437 39.1949 76.2217 38.9731C75.8538 38.6105 75.6111 38.14 75.529 37.63C75.4469 37.1199 75.5297 36.597 75.7653 36.1373C76.392 34.9452 76.908 33.6981 77.3069 32.4117C77.4613 31.9359 77.7635 31.5217 78.1696 31.2294C78.5756 30.9372 79.0643 30.7821 79.5646 30.7868H79.6165C80.2492 30.7853 80.8554 30.533 81.3022 30.0851C81.7491 29.6373 82 29.0305 82 28.3978V23.3247C82 22.6912 81.7483 22.0835 81.3003 21.6355C80.8523 21.1875 80.2447 20.9358 79.6111 20.9358C79.0962 20.9398 78.5934 20.7797 78.1756 20.4787C77.7579 20.1776 77.4469 19.7513 77.2877 19.2616C76.891 17.9926 76.38 16.7621 75.7612 15.5853C75.5256 15.1255 75.4428 14.6026 75.5249 14.0926C75.607 13.5826 75.8497 13.112 76.2176 12.7494C76.4396 12.5277 76.6157 12.2644 76.7359 11.9745C76.856 11.6847 76.9179 11.374 76.9179 11.0602C76.9179 10.7465 76.856 10.4358 76.7359 10.1459C76.6157 9.85609 76.4396 9.59277 76.2176 9.37102L72.6315 5.78078C72.4097 5.55879 72.1464 5.38269 71.8566 5.26253C71.5667 5.14238 71.256 5.08054 70.9423 5.08054C70.6285 5.08054 70.3178 5.14238 70.028 5.26253C69.7381 5.38269 69.4748 5.55879 69.2531 5.78078C68.8905 6.14874 68.4199 6.39143 67.9099 6.47352C67.3999 6.55562 66.877 6.47285 66.4172 6.23725C65.2404 5.61836 64.0099 5.10741 62.7409 4.71067C62.2512 4.55154 61.8249 4.24054 61.5238 3.82278C61.2228 3.40503 61.0627 2.90223 61.0667 2.38733C61.0665 2.0735 61.0045 1.76277 60.8842 1.47291C60.7639 1.18305 60.5877 0.919737 60.3655 0.698012C60.1434 0.476287 59.8798 0.300498 59.5898 0.180689C59.2997 0.0608798 58.9889 -0.000601707 58.675 -0.000242576H53.6019C52.9683 -0.000242576 52.3607 0.251449 51.9127 0.699462C51.4647 1.14748 51.213 1.75511 51.213 2.3887V2.44063C51.2176 2.9409 51.0626 3.42961 50.7703 3.83567C50.4781 4.24172 50.0639 4.54395 49.588 4.69837C48.3016 5.09719 47.0545 5.61322 45.8625 6.23998C45.4027 6.47558 44.8798 6.55835 44.3698 6.47626C43.8598 6.39416 43.3892 6.15148 43.0266 5.78351C42.8049 5.56152 42.5416 5.38542 42.2517 5.26527C41.9619 5.14512 41.6512 5.08327 41.3374 5.08327C41.0237 5.08327 40.713 5.14512 40.4231 5.26527C40.1333 5.38542 39.87 5.56152 39.6482 5.78351L36.058 9.36829C35.836 9.59003 35.6599 9.85335 35.5397 10.1432C35.4196 10.433 35.3577 10.7437 35.3577 11.0575C35.3577 11.3713 35.4196 11.6819 35.5397 11.9718C35.6599 12.2616 35.836 12.525 36.058 12.7467C36.4258 13.1088 36.6686 13.5786 36.7512 14.0881C36.8338 14.5976 36.7518 15.1201 36.5172 15.5798C35.8977 16.7563 35.3867 17.9869 34.9906 19.2562C34.8313 19.7458 34.5202 20.1719 34.1025 20.4729C33.6848 20.7739 33.1821 20.9341 32.6673 20.9303C32.3535 20.9302 32.0428 20.9918 31.7528 21.1118C31.4629 21.2318 31.1995 21.4078 30.9776 21.6296C30.7558 21.8515 30.5798 22.1149 30.4598 22.4049C30.3398 22.6948 30.2781 23.0055 30.2783 23.3193V25.8558H42.4417C42.4428 23.1484 43.2465 20.5021 44.7514 18.2514C46.2562 16.0007 48.3946 14.2467 50.8961 13.2111C53.3976 12.1755 56.1501 11.9049 58.8054 12.4333C61.4607 12.9618 63.8998 14.2656 65.8142 16.1801C67.7287 18.0945 69.0325 20.5336 69.561 23.1889C70.0894 25.8442 69.8188 28.5967 68.7832 31.0982C67.7476 33.5997 65.9936 35.7381 63.7429 37.2429C61.4922 38.7478 58.8459 39.5515 56.1385 39.5526V51.7228Z" fill="#D5E5F2"/>
<path d="M53.2647 43.1867C49.432 43.1867 45.7563 41.6641 43.0462 38.954C40.336 36.2439 38.8135 32.5682 38.8135 28.7355H25.9668V31.4128C25.9668 32.0815 26.2325 32.7229 26.7053 33.1958C27.1782 33.6686 27.8196 33.9343 28.4883 33.9343C29.0331 33.9285 29.5654 34.0968 30.0079 34.4147C30.4504 34.7325 30.7798 35.1833 30.9483 35.7014C31.3662 37.0411 31.9055 38.3398 32.5596 39.5814C32.8083 40.0666 32.8956 40.6186 32.8088 41.1569C32.722 41.6953 32.4657 42.1918 32.0772 42.5744C31.8429 42.8084 31.6571 43.0864 31.5303 43.3923C31.4035 43.6982 31.3382 44.0261 31.3382 44.3572C31.3382 44.6884 31.4035 45.0162 31.5303 45.3222C31.6571 45.6281 31.8429 45.906 32.0772 46.14L35.8642 49.9271C36.0983 50.1613 36.3762 50.3472 36.6821 50.474C36.988 50.6008 37.3159 50.666 37.6471 50.666C37.9782 50.666 38.3061 50.6008 38.612 50.474C38.9179 50.3472 39.1958 50.1613 39.4299 49.9271C39.8124 49.5385 40.309 49.2822 40.8473 49.1954C41.3857 49.1087 41.9376 49.196 42.4229 49.4446C43.6645 50.0988 44.9632 50.6381 46.3029 51.056C46.821 51.2244 47.2717 51.5539 47.5896 51.9963C47.9074 52.4388 48.0757 52.9712 48.07 53.516C48.0711 54.1833 48.3366 54.823 48.8085 55.2948C49.2804 55.7667 49.9201 56.0323 50.5874 56.0334H53.2647V43.1867Z" fill="#B0C4DA"/>
</svg>
