<svg width="40" height="40" viewBox="0 0 40 40" fill="none" xmlns="http://www.w3.org/2000/svg">
<circle cx="20" cy="20" r="20" fill="black"/>
<mask id="mask0_642_845" style="mask-type:alpha" maskUnits="userSpaceOnUse" x="0" y="0" width="40" height="40">
<circle cx="20" cy="20" r="20" fill="black"/>
</mask>
<g mask="url(#mask0_642_845)">
<path d="M27.5332 14.4009C27.5332 10.2727 24.1535 6.91357 20 6.91357C15.8464 6.91357 12.4668 10.2727 12.4668 14.4009C12.4668 18.5179 15.8464 21.877 20 21.877C24.1535 21.877 27.5332 18.5179 27.5332 14.4009ZM6.91357 35.7547V38.0167C6.91357 40.1996 8.70017 41.9753 10.8964 41.9753H29.1036C31.2998 41.9753 33.0864 40.1996 33.0864 38.0167V35.7547C33.0864 28.584 27.2146 22.7479 20 22.7479C12.7854 22.7479 6.91357 28.584 6.91357 35.7547Z" fill="#939393"/>
</g>
</svg>
