<svg width="20" height="20" viewBox="0 0 20 20" fill="none" xmlns="http://www.w3.org/2000/svg">
<g clip-path="url(#clip0_470_510)">
<path fill-rule="evenodd" clip-rule="evenodd" d="M0 0H28V1.53846H0V0ZM0 3.07692H28V4.61538H0V3.07692ZM0 6.15385H28V7.69231H0V6.15385ZM0 9.23077H28V10.7692H0V9.23077ZM0 12.3077H28V13.8462H0V12.3077ZM0 15.3846H28V16.9231H0V15.3846ZM0 18.4615H28V20H0V18.4615Z" fill="#BD3D44"/>
<path fill-rule="evenodd" clip-rule="evenodd" d="M0 1.53845H28V3.07691H0V1.53845ZM0 4.61537H28V6.15384H0V4.61537ZM0 7.6923H28V9.23076H0V7.6923ZM0 10.7692H28V12.3077H0V10.7692ZM0 13.8461H28V15.3846H0V13.8461ZM0 16.9231H28V18.4615H0V16.9231Z" fill="white"/>
<path fill-rule="evenodd" clip-rule="evenodd" d="M0 0H11.2V10.7692H0V0Z" fill="#192F5D"/>
<path fill-rule="evenodd" clip-rule="evenodd" d="M0.929504 0.461548L1.04286 0.892317H1.36027L1.09954 1.15386L1.20157 1.56924L0.929504 1.3077L0.680111 1.56924L0.782136 1.15386L0.510071 0.892317H0.850152L0.929504 0.461548ZM2.79995 0.461548L2.90197 0.892317H3.23072L2.95865 1.15386L3.07201 1.56924L2.79995 1.3077L2.52789 1.56924L2.64125 1.15386L2.36918 0.892317H2.69793L2.79995 0.461548ZM4.6704 0.461548L4.77242 0.892317H5.10117L4.8291 1.15386L4.94246 1.56924L4.6704 1.3077L4.39833 1.56924L4.51169 1.15386L4.23963 0.892317H4.56837L4.6704 0.461548ZM6.52951 0.461548L6.64287 0.892317H6.96028L6.69955 1.15386L6.80157 1.56924L6.52951 1.3077L6.26878 1.56924L6.3708 1.15386L6.09874 0.892317H6.43882L6.52951 0.461548ZM8.39995 0.461548L8.50198 0.892317H8.83072L8.55866 1.15386L8.67202 1.56924L8.38862 1.3077L8.12789 1.56924L8.22991 1.15386L7.95785 0.892317H8.28659L8.39995 0.461548ZM10.2704 0.461548L10.3724 0.892317H10.7012L10.4291 1.15386L10.5425 1.56924L10.2704 1.3077L9.99833 1.56924L10.1117 1.15386L9.83963 0.892317H10.1684L10.2704 0.461548ZM1.8704 1.53847L1.97242 1.96924H2.30116L2.0291 2.23078L2.14246 2.64616L1.8704 2.38462L1.59833 2.64616L1.71169 2.23078L1.43963 1.96924H1.76837L1.8704 1.53847ZM3.72951 1.53847L3.84287 1.96924H4.16027L3.89955 2.23078L4.00157 2.64616L3.72951 2.38462L3.46878 2.64616L3.5708 2.23078L3.29874 1.96924H3.63882L3.72951 1.53847ZM5.59995 1.53847L5.70198 1.96924H6.03072L5.75866 2.23078L5.87202 2.64616L5.59995 2.38462L5.32789 2.64616L5.44125 2.23078L5.16918 1.96924H5.49793L5.59995 1.53847ZM7.4704 1.53847L7.57242 1.96924H7.90117L7.6291 2.23078L7.74246 2.64616L7.4704 2.38462L7.19833 2.64616L7.31169 2.23078L7.03963 1.96924H7.36837L7.4704 1.53847ZM9.32951 1.53847L9.44287 1.96924H9.74894L9.48821 2.23078L9.59024 2.64616L9.31817 2.38462L9.05744 2.64616L9.15947 2.23078L8.8874 1.96924H9.22748L9.32951 1.53847ZM0.94084 2.61539L1.03153 3.04616H1.37161L1.09954 3.3077L1.20157 3.72309L0.929504 3.46155L0.680111 3.72309L0.782136 3.3077L0.510071 3.04616H0.850152L0.94084 2.61539ZM2.79995 2.61539L2.90197 3.04616H3.23072L2.96999 3.3077L3.07201 3.72309L2.79995 3.46155L2.53922 3.72309L2.64125 3.3077L2.36918 3.04616H2.69793L2.79995 2.61539ZM4.6704 2.61539L4.77242 3.04616H5.10117L4.8291 3.3077L4.94246 3.72309L4.6704 3.46155L4.39833 3.72309L4.51169 3.3077L4.23963 3.04616H4.56837L4.6704 2.61539ZM6.52951 2.61539L6.64287 3.04616H6.96028L6.69955 3.3077L6.80157 3.72309L6.52951 3.46155L6.26878 3.72309L6.3708 3.3077L6.09874 3.04616H6.43882L6.52951 2.61539ZM8.39995 2.61539L8.50198 3.04616H8.83072L8.56999 3.3077L8.67202 3.72309L8.39995 3.46155L8.13922 3.72309L8.24125 3.3077L7.96918 3.04616H8.29793L8.39995 2.61539ZM10.2704 2.61539L10.3724 3.04616H10.7012L10.4291 3.3077L10.5425 3.72309L10.2704 3.46155L9.99833 3.72309L10.1117 3.3077L9.83963 3.04616H10.1684L10.2704 2.61539ZM1.8704 3.69232L1.97242 4.12308H2.30116L2.0291 4.38462L2.14246 4.80001L1.8704 4.53847L1.59833 4.80001L1.71169 4.38462L1.43963 4.12308H1.76837L1.8704 3.69232ZM3.72951 3.69232L3.84287 4.12308H4.16027L3.89955 4.38462L4.00157 4.80001L3.72951 4.53847L3.46878 4.80001L3.5708 4.38462L3.29874 4.12308H3.63882L3.72951 3.69232ZM5.59995 3.69232L5.70198 4.12308H6.03072L5.76999 4.38462L5.87202 4.80001L5.59995 4.53847L5.33922 4.80001L5.44125 4.38462L5.16918 4.12308H5.49793L5.59995 3.69232ZM7.4704 3.69232L7.57242 4.12308H7.90117L7.6291 4.38462L7.74246 4.80001L7.4704 4.53847L7.19833 4.80001L7.31169 4.38462L7.03963 4.12308H7.36837L7.4704 3.69232ZM9.32951 3.69232L9.44287 4.12308H9.74894L9.48821 4.38462L9.59024 4.80001L9.31817 4.53847L9.05744 4.80001L9.15947 4.38462L8.8874 4.12308H9.22748L9.32951 3.69232ZM0.94084 4.76924L1.03153 5.20001H1.37161L1.09954 5.46155L1.20157 5.87693L0.929504 5.61539L0.680111 5.87693L0.782136 5.46155L0.510071 5.20001H0.850152L0.94084 4.76924ZM2.79995 4.76924L2.90197 5.20001H3.23072L2.96999 5.46155L3.07201 5.87693L2.79995 5.61539L2.53922 5.87693L2.64125 5.46155L2.36918 5.20001H2.69793L2.79995 4.76924ZM4.6704 4.76924L4.77242 5.20001H5.10117L4.8291 5.46155L4.94246 5.87693L4.6704 5.61539L4.39833 5.87693L4.51169 5.46155L4.23963 5.20001H4.56837L4.6704 4.76924ZM6.52951 4.76924L6.64287 5.20001H6.96028L6.69955 5.46155L6.80157 5.87693L6.52951 5.61539L6.26878 5.87693L6.3708 5.46155L6.09874 5.20001H6.43882L6.52951 4.76924ZM8.39995 4.76924L8.50198 5.20001H8.83072L8.56999 5.46155L8.67202 5.87693L8.39995 5.61539L8.13922 5.87693L8.24125 5.46155L7.96918 5.20001H8.29793L8.39995 4.76924ZM10.2704 4.76924L10.3724 5.20001H10.7012L10.4291 5.46155L10.5425 5.87693L10.2704 5.61539L9.99833 5.87693L10.1117 5.46155L9.83963 5.20001H10.1684L10.2704 4.76924ZM1.8704 5.84616L1.97242 6.27693H2.30116L2.0291 6.53847L2.14246 6.95385L1.8704 6.69231L1.59833 6.95385L1.71169 6.53847L1.43963 6.27693H1.76837L1.8704 5.84616ZM3.72951 5.84616L3.84287 6.27693H4.16027L3.89955 6.53847L4.00157 6.95385L3.72951 6.69231L3.46878 6.95385L3.5708 6.53847L3.29874 6.27693H3.63882L3.72951 5.84616ZM5.59995 5.84616L5.70198 6.27693H6.03072L5.76999 6.53847L5.87202 6.95385L5.59995 6.69231L5.33922 6.95385L5.44125 6.53847L5.16918 6.27693H5.49793L5.59995 5.84616ZM7.4704 5.84616L7.57242 6.27693H7.90117L7.6291 6.53847L7.74246 6.95385L7.4704 6.69231L7.19833 6.95385L7.31169 6.53847L7.03963 6.27693H7.36837L7.4704 5.84616ZM9.32951 5.84616L9.44287 6.27693H9.74894L9.48821 6.53847L9.59024 6.95385L9.31817 6.69231L9.05744 6.95385L9.15947 6.53847L8.8874 6.27693H9.22748L9.32951 5.84616ZM0.94084 6.92308L1.03153 7.35385H1.37161L1.09954 7.61539L1.20157 8.03078L0.929504 7.76924L0.680111 8.03078L0.782136 7.61539L0.510071 7.35385H0.850152L0.94084 6.92308ZM2.79995 6.92308L2.90197 7.35385H3.23072L2.96999 7.61539L3.07201 8.03078L2.79995 7.76924L2.53922 8.03078L2.64125 7.61539L2.36918 7.35385H2.69793L2.79995 6.92308ZM4.6704 6.92308L4.77242 7.35385H5.10117L4.8291 7.61539L4.94246 8.03078L4.6704 7.76924L4.39833 8.03078L4.51169 7.61539L4.23963 7.35385H4.56837L4.6704 6.92308ZM6.52951 6.92308L6.64287 7.35385H6.96028L6.69955 7.61539L6.80157 8.03078L6.52951 7.76924L6.26878 8.03078L6.3708 7.61539L6.09874 7.35385H6.43882L6.52951 6.92308ZM8.39995 6.92308L8.50198 7.35385H8.83072L8.56999 7.61539L8.67202 8.03078L8.39995 7.76924L8.13922 8.03078L8.24125 7.61539L7.96918 7.35385H8.29793L8.39995 6.92308ZM10.2704 6.92308L10.3724 7.35385H10.7012L10.4291 7.61539L10.5425 8.03078L10.2704 7.76924L9.99833 8.03078L10.1117 7.61539L9.83963 7.35385H10.1684L10.2704 6.92308ZM1.8704 8.00001L1.97242 8.43078H2.30116L2.0291 8.69231L2.14246 9.1077L1.8704 8.84616L1.59833 9.1077L1.71169 8.69231L1.43963 8.43078H1.76837L1.8704 8.00001ZM3.72951 8.00001L3.84287 8.43078H4.16027L3.89955 8.69231L4.00157 9.1077L3.72951 8.84616L3.46878 9.1077L3.5708 8.69231L3.29874 8.43078H3.63882L3.72951 8.00001ZM5.59995 8.00001L5.70198 8.43078H6.03072L5.76999 8.69231L5.87202 9.1077L5.59995 8.84616L5.33922 9.1077L5.44125 8.69231L5.16918 8.43078H5.49793L5.59995 8.00001ZM7.4704 8.00001L7.57242 8.43078H7.90117L7.6291 8.69231L7.74246 9.1077L7.4704 8.84616L7.19833 9.1077L7.31169 8.69231L7.03963 8.43078H7.36837L7.4704 8.00001ZM9.32951 8.00001L9.44287 8.43078H9.74894L9.48821 8.69231L9.59024 9.1077L9.31817 8.84616L9.05744 9.1077L9.15947 8.69231L8.8874 8.43078H9.22748L9.32951 8.00001ZM0.94084 9.07693L1.03153 9.5077H1.37161L1.09954 9.76924L1.20157 10.1846L0.929504 9.92308L0.680111 10.1846L0.782136 9.76924L0.510071 9.5077H0.850152L0.94084 9.07693ZM2.79995 9.07693L2.90197 9.5077H3.23072L2.96999 9.76924L3.07201 10.1846L2.79995 9.92308L2.53922 10.1846L2.64125 9.76924L2.36918 9.5077H2.69793L2.79995 9.07693ZM4.6704 9.07693L4.77242 9.5077H5.10117L4.8291 9.76924L4.94246 10.1846L4.6704 9.92308L4.39833 10.1846L4.51169 9.76924L4.23963 9.5077H4.56837L4.6704 9.07693ZM6.52951 9.07693L6.64287 9.5077H6.96028L6.69955 9.76924L6.80157 10.1846L6.52951 9.92308L6.26878 10.1846L6.3708 9.76924L6.09874 9.5077H6.43882L6.52951 9.07693ZM8.39995 9.07693L8.50198 9.5077H8.83072L8.56999 9.76924L8.67202 10.1846L8.39995 9.92308L8.13922 10.1846L8.24125 9.76924L7.96918 9.5077H8.29793L8.39995 9.07693ZM10.2704 9.07693L10.3724 9.5077H10.7012L10.4291 9.76924L10.5425 10.1846L10.2704 9.92308L9.99833 10.1846L10.1117 9.76924L9.83963 9.5077H10.1684L10.2704 9.07693Z" fill="white"/>
</g>
<defs>
<clipPath id="clip0_470_510">
<rect width="20" height="20" fill="white"/>
</clipPath>
</defs>
</svg>
