<svg width="15" height="15" viewBox="0 0 15 15" fill="none" xmlns="http://www.w3.org/2000/svg">
<path fill-rule="evenodd" clip-rule="evenodd" d="M11.667 1.99499C11.3711 1.87362 11.054 1.81119 10.7338 1.81126C10.4136 1.81134 10.0965 1.87391 9.80074 1.99542C9.50494 2.11692 9.2362 2.29497 9.00988 2.5194L8.12226 3.39877C7.76527 3.75244 7.18648 3.75244 6.82949 3.39877C6.4725 3.04509 6.4725 2.47168 6.82949 2.11801L7.7165 1.23924C7.71656 1.23919 7.71661 1.23913 7.71667 1.23908C7.71671 1.23903 7.71676 1.23899 7.7168 1.23894C8.11281 0.846337 8.58299 0.53485 9.1005 0.322271C9.61815 0.109639 10.173 0.000129306 10.7334 1.1457e-07C11.2938 -0.000129149 11.8487 0.109124 12.3664 0.321518C12.8842 0.533913 13.3546 0.845285 13.7509 1.23785C14.1471 1.63041 14.4614 2.09647 14.6758 2.60941C14.8902 3.12234 15.0005 3.6721 15.0003 4.22726C15.0002 4.78243 14.8897 5.33214 14.675 5.84497C14.4605 6.35768 14.1461 6.82349 13.7498 7.21581C13.7497 7.2159 13.7496 7.216 13.7495 7.2161L11.5951 9.3504C11.199 9.74285 10.7287 10.0542 10.2112 10.2665C9.69359 10.4789 9.13887 10.5882 8.57865 10.5882C8.01844 10.5882 7.46372 10.4789 6.94615 10.2665C6.42858 10.0542 5.95831 9.74285 5.56218 9.3504C5.20519 8.99673 5.20519 8.42331 5.56218 8.06964C5.91917 7.71597 6.49796 7.71597 6.85495 8.06964C7.08131 8.2939 7.35004 8.47179 7.64579 8.59315C7.94155 8.71452 8.25853 8.77699 8.57865 8.77699C8.89878 8.77699 9.21576 8.71452 9.51152 8.59315C9.80727 8.47179 10.076 8.2939 10.3024 8.06964L12.4573 5.93475C12.6838 5.71053 12.8635 5.4443 12.9862 5.15125C13.1088 4.8582 13.172 4.54408 13.1721 4.22684C13.1721 3.9096 13.1091 3.59546 12.9866 3.30235C12.8641 3.00925 12.6845 2.74293 12.4581 2.51861C12.2317 2.29428 11.9628 2.11636 11.667 1.99499Z" fill="#939393"/>
<path fill-rule="evenodd" clip-rule="evenodd" d="M6.42168 6.22313C6.10155 6.22313 5.78457 6.28559 5.48881 6.40696C5.19306 6.52833 4.92433 6.70622 4.69797 6.93047L2.54305 9.06536C2.31651 9.28958 2.13679 9.55582 2.01415 9.84887C1.8915 10.1419 1.82834 10.456 1.82826 10.7733C1.82819 11.0905 1.8912 11.4047 2.01371 11.6978C2.13622 11.9909 2.31582 12.2572 2.54224 12.4815C2.76867 12.7058 3.03749 12.8838 3.33335 13.0051C3.6292 13.1265 3.94629 13.1889 4.26651 13.1889C4.58673 13.1888 4.90379 13.1262 5.19959 13.0047C5.49539 12.8832 5.76413 12.7051 5.99045 12.4807L6.87793 11.6015C7.23492 11.2478 7.81371 11.2478 8.17071 11.6015C8.5277 11.9552 8.52769 12.5286 8.1707 12.8822L7.28383 13.7609C7.28372 13.761 7.28363 13.7611 7.28352 13.7612C6.88753 14.1538 6.41734 14.4653 5.89983 14.6778C5.38218 14.8905 4.82732 15 4.26694 15.0001C3.70656 15.0002 3.15164 14.891 2.6339 14.6786C2.11615 14.4662 1.64571 14.1548 1.24947 13.7623C0.853218 13.3697 0.538923 12.9036 0.324536 12.3907C0.110149 11.8778 -0.000130361 11.328 1.15645e-07 10.7729C0.00013052 10.2177 0.110668 9.66798 0.325296 9.15514C0.53987 8.64244 0.854279 8.17663 1.25057 7.78431C1.25064 7.78424 1.25072 7.78416 1.25079 7.78409C1.25082 7.78406 1.25084 7.78404 1.25087 7.78401L3.4052 5.64971C3.80133 5.25727 4.2716 4.94596 4.78917 4.73357C5.30674 4.52118 5.86146 4.41187 6.42168 4.41187C6.98189 4.41187 7.53661 4.52118 8.05418 4.73357C8.57175 4.94596 9.04202 5.25727 9.43815 5.64971C9.79514 6.00339 9.79514 6.5768 9.43815 6.93047C9.08116 7.28414 8.50237 7.28414 8.14538 6.93047C7.91902 6.70622 7.65029 6.52833 7.35454 6.40696C7.05878 6.28559 6.7418 6.22313 6.42168 6.22313Z" fill="#939393"/>
</svg>
