<svg width="23" height="16" viewBox="0 0 23 16" fill="none" xmlns="http://www.w3.org/2000/svg">
<path d="M20.3462 0H2.65385C1.95 0 1.27499 0.280952 0.777294 0.781049C0.279601 1.28115 0 1.95942 0 2.66667V3.11111H23V2.66667C23 1.95942 22.7204 1.28115 22.2227 0.781049C21.725 0.280952 21.05 0 20.3462 0ZM0 13.3333C0 14.0406 0.279601 14.7189 0.777294 15.219C1.27499 15.719 1.95 16 2.65385 16H20.3462C21.05 16 21.725 15.719 22.2227 15.219C22.7204 14.7189 23 14.0406 23 13.3333V4.88889H0V13.3333ZM3.53846 11.1111H5.75C5.98461 11.1111 6.20962 11.2048 6.37552 11.3715C6.54141 11.5382 6.63462 11.7643 6.63462 12C6.63462 12.2357 6.54141 12.4618 6.37552 12.6285C6.20962 12.7952 5.98461 12.8889 5.75 12.8889H3.53846C3.30385 12.8889 3.07884 12.7952 2.91294 12.6285C2.74705 12.4618 2.65385 12.2357 2.65385 12C2.65385 11.7643 2.74705 11.5382 2.91294 11.3715C3.07884 11.2048 3.30385 11.1111 3.53846 11.1111Z" fill="white"/>
</svg>
