<svg width="91" height="81" viewBox="0 0 91 81" fill="none" xmlns="http://www.w3.org/2000/svg">
<path d="M45.4432 40.8481H37.6618C36.728 40.8481 36.1055 40.2256 36.1055 39.2918C36.1055 38.358 36.728 37.7355 37.6618 37.7355H45.4432C48.867 37.7355 51.6683 34.9342 51.6683 31.5104V27.7753C51.6683 26.8415 52.2908 26.219 53.2246 26.219C54.1584 26.219 54.7809 26.8415 54.7809 27.7753V31.5104C54.7809 36.4905 50.7345 40.8481 45.4432 40.8481Z" fill="#004463"/>
<path d="M18.3632 31.5101H13.3831C11.5155 31.5101 10.2705 30.2651 10.2705 28.3976V26.8413C10.2705 24.9738 11.5155 23.7287 13.3831 23.7287H18.0519V31.5101H18.3632Z" fill="#239350"/>
<path d="M10.8936 29.9539H12.7611C13.6949 29.9539 14.3174 29.3313 14.3174 28.3976V23.7287H15.8737V31.5101H13.3836C12.4498 31.5101 11.5161 30.8876 10.8936 29.9539Z" fill="#239350"/>
<path d="M47 31.5101H51.6689C53.5364 31.5101 54.7814 30.2651 54.7814 28.3976V26.8413C54.7814 24.9738 53.5364 23.7287 51.6689 23.7287H47V31.5101Z" fill="#239350"/>
<path d="M54.4703 29.9539H52.6028C51.669 29.9539 51.0465 29.3313 51.0465 28.3976V23.7287H49.4902V31.5101H51.9803C52.9141 31.5101 53.8478 30.8876 54.4703 29.9539Z" fill="#239350"/>
<path d="M23.6555 52.3644L9.02644 57.3445C3.73508 59.212 0 64.1921 0 69.7948V81H65.3639V69.4835C65.3639 63.8809 61.6288 58.9008 56.3375 57.0332L41.7084 52.0531H23.6555V52.3644Z" fill="#D5E5F2"/>
<path d="M31.1257 52.0532H23.6555L9.02644 57.0333C4.35759 58.5896 0 63.881 0 69.4836V81.0001H5.29136V69.4836C5.29136 65.7485 8.09267 62.3247 11.5165 61.3909L17.4304 59.2121C19.9204 58.2784 22.4105 58.9009 24.278 60.1459C24.9005 60.4572 26.1456 61.0797 26.4568 61.3909C28.0131 62.3247 30.1919 62.3247 31.7482 61.3909C34.5495 59.8346 38.2846 57.0333 38.2846 53.6095L37.3508 51.742H31.1257V52.0532ZM65.3639 81.0001V69.4836C65.3639 66.9935 64.7414 64.8147 63.4964 62.9472C55.7149 63.881 49.8011 70.4174 49.8011 78.51V81.0001H65.3639Z" fill="#B0C4DA"/>
<path d="M0 80.9999V69.4834C0 66.9934 0.622513 64.8146 1.86754 62.9471C9.64896 63.8808 15.5628 70.4172 15.5628 78.5099V80.9999H0Z" fill="#B0C4DA"/>
<path d="M5.29163 69.4834C5.29163 67.6159 5.91414 65.7484 7.15917 64.5033C5.60289 63.5696 3.73535 63.2583 2.17906 62.9471C0.934037 64.8146 0.311523 67.3046 0.311523 69.4834V80.9999H5.60289L5.29163 69.4834Z" fill="#99B5CE"/>
<path d="M23.3438 41.7818V52.0533C23.3438 57.0334 32.3702 61.0797 32.3702 61.0797C32.3702 61.0797 41.3966 57.0334 41.3966 52.0533V41.7818H23.3438Z" fill="#F0C9AE"/>
<path d="M23.3438 47.0727C25.8338 48.629 29.2576 49.874 32.3702 49.874C35.794 49.874 38.9066 48.9403 41.3966 47.0727V42.0926H23.3438V47.0727Z" fill="#E2B698"/>
<path d="M28.6351 52.3642V45.8278H23.3438V52.3642C23.3438 57.3443 32.3702 61.3907 32.3702 61.3907L34.8602 60.1456C32.3702 58.2781 28.6351 55.4768 28.6351 52.3642Z" fill="#E2B698"/>
<path d="M49.4902 13.146V29.9538C49.4902 39.2915 42.02 47.073 32.3711 47.073C23.0334 47.073 15.252 39.6028 15.252 29.9538V13.146" fill="#F0C9AE"/>
<path d="M20.8544 30.8878V27.7752C20.8544 25.5964 22.7219 23.7289 24.9007 24.0401C31.4371 25.2852 38.2847 23.7289 43.5761 19.6825C44.5099 19.06 45.7549 19.6825 45.7549 20.6163V15.6362C45.7549 14.7024 44.5099 14.0799 43.5761 14.7024C38.2847 18.7488 31.4371 20.3051 24.9007 19.06L22.0994 18.4375C21.7881 18.4375 21.1656 18.4375 20.8544 18.7488L19.9206 19.3713V19.9938C19.9206 19.9938 19.6093 20.6163 19.6093 20.9276C19.6093 22.4839 18.3643 23.4176 17.1193 23.4176H15.563V29.954C15.563 35.8679 18.6756 41.1593 23.3444 44.2718C21.7881 40.2255 20.8544 35.5566 20.8544 30.8878Z" fill="#E2B698"/>
<path d="M15.563 23.7287H17.1193C18.6755 23.7287 19.6093 22.4836 19.6093 21.2386C19.6093 19.6823 20.8543 18.7486 22.0994 18.7486L24.9007 19.3711C31.4371 20.6161 38.2847 19.0598 43.5761 15.0135C44.5099 14.391 45.7549 15.0135 45.7549 15.9473V21.2386C45.7549 22.7949 46.9999 23.7287 48.2449 23.7287H49.49L51.98 15.3247C52.9138 11.5897 49.8012 7.85458 46.0661 7.85458V7.54332C46.0661 2.87447 42.0198 -0.549356 37.351 0.0731574L19.2981 3.18572C15.2517 3.80824 12.4504 7.85458 13.0729 12.2122L15.563 23.7287Z" fill="#8A6845"/>
<path d="M18.3643 12.2119C17.7418 7.85436 20.5431 3.80802 24.5894 3.1855L40.7748 0.384193C39.841 0.0729367 38.596 0.072937 37.351 0.072937L19.2981 3.1855C15.2517 3.80802 12.4504 7.85436 13.0729 12.2119L15.563 23.7284H17.1193C18.6755 23.7284 19.6093 22.4834 19.6093 21.2384C19.6093 20.6159 19.9206 20.3046 19.9206 19.9934L18.3643 12.2119ZM51.0462 15.6358C51.0462 14.702 49.8012 14.0795 48.8675 14.702C47.9337 15.3245 46.6887 15.947 45.7549 16.5695V20.9271C45.7549 22.4834 46.9999 23.4172 48.2449 23.4172H49.49L50.735 19.0596V15.6358H51.0462Z" fill="#745539"/>
<path d="M87.152 9.41053H65.364C63.4965 9.41053 62.2515 10.6556 62.2515 12.5231V24.9734C62.2515 26.8409 63.4965 28.0859 65.364 28.0859H68.4766V34.3111L77.8143 28.0859H87.152C89.0195 28.0859 90.2646 26.8409 90.2646 24.9734V12.5231C90.2646 10.6556 89.0195 9.41053 87.152 9.41053Z" fill="#EEF2FA"/>
<path d="M84.0394 23.4171H71.5892C69.7216 23.4171 68.4766 22.1721 68.4766 20.3045V9.41053H65.364C63.4965 9.41053 62.2515 10.6556 62.2515 12.5231V24.9734C62.2515 26.8409 63.4965 28.0859 65.364 28.0859H68.4766V34.3111L77.8143 28.0859H87.152C89.0195 28.0859 90.2646 26.8409 90.2646 24.9734V23.4171H84.0394Z" fill="#D5E5F2"/>
<path d="M83.728 17.1922H68.1652C67.2314 17.1922 66.6089 16.5697 66.6089 15.6359C66.6089 14.7021 67.2314 14.0796 68.1652 14.0796H83.728C84.6618 14.0796 85.2843 14.7021 85.2843 15.6359C85.2843 16.5697 84.6618 17.1922 83.728 17.1922ZM77.5029 23.4173H68.1652C67.2314 23.4173 66.6089 22.7948 66.6089 21.861C66.6089 20.9273 67.2314 20.3047 68.1652 20.3047H77.5029C78.4366 20.3047 79.0592 20.9273 79.0592 21.861C79.0592 22.7948 78.4366 23.4173 77.5029 23.4173Z" fill="#99B5CE"/>
<path d="M51.0458 34.3112C50.112 36.1788 47.9332 37.7351 45.4432 37.7351H37.6618C36.728 37.7351 36.1055 38.3576 36.1055 39.2913C36.1055 40.2251 36.728 40.8476 37.6618 40.8476H45.4432C49.4895 40.8476 53.2246 38.0463 54.4696 34.3112H51.0458Z" fill="#239350"/>
</svg>
