<svg width="140" height="116" viewBox="0 0 140 116" fill="none" xmlns="http://www.w3.org/2000/svg">
<path d="M130.038 5.04792L89.6407 68.8258L49.9716 38.1283C49.6701 37.893 49.3288 37.7258 48.9677 37.6367C48.6066 37.5475 48.2329 37.5381 47.8685 37.609C47.504 37.68 47.1561 37.8298 46.8451 38.0497C46.534 38.2697 46.2661 38.5554 46.057 38.8901L0.504744 110.792C0.211467 111.257 0.0390377 111.801 0.00588507 112.365C-0.0272676 112.929 0.0801031 113.493 0.31652 113.995C0.552937 114.498 0.909515 114.921 1.34814 115.218C1.78677 115.516 2.29096 115.678 2.80682 115.686C3.69651 115.686 4.56952 115.229 5.11446 114.363L49.0485 45.0028L88.7177 75.6942C89.0201 75.9276 89.3615 76.0932 89.7225 76.1816C90.0835 76.2699 90.4568 76.2793 90.821 76.209C91.1853 76.1388 91.5333 75.9904 91.8451 75.7724C92.1569 75.5543 92.4263 75.2709 92.6379 74.9384L134.654 8.61924L130.038 5.04792Z" fill="#99C5ED"/>
<path d="M137.296 3.09063C137.235 2.69554 137.103 2.3177 136.907 1.97906C136.712 1.64043 136.457 1.34777 136.157 1.11809C135.858 0.888418 135.519 0.726319 135.162 0.64122C134.805 0.556122 134.436 0.549723 134.076 0.622395L119.118 3.51723C118.758 3.58568 118.414 3.73137 118.106 3.94594C117.797 4.16051 117.53 4.43974 117.321 4.7676C117.111 5.09546 116.962 5.46549 116.883 5.85646C116.804 6.24743 116.797 6.65164 116.861 7.04589C116.922 7.44159 117.054 7.82002 117.25 8.15911C117.445 8.4982 117.701 8.79117 118.001 9.02092C118.301 9.25067 118.64 9.41261 118.998 9.49728C119.356 9.58196 119.726 9.58769 120.086 9.51412L132.536 7.64314L132.569 7.62486L134.465 20.5511C134.516 20.9572 134.642 21.348 134.834 21.6998C135.026 22.0517 135.28 22.3575 135.583 22.5989C135.885 22.8403 136.229 23.0123 136.593 23.1047C136.958 23.197 137.335 23.2079 137.704 23.1365C138.072 23.0651 138.424 22.913 138.737 22.6892C139.051 22.4654 139.32 22.1747 139.528 21.8342C139.737 21.4938 139.88 21.1108 139.951 20.7081C140.021 20.3054 140.016 19.8913 139.937 19.4906L137.296 3.09063Z" fill="#99C5ED"/>
</svg>
