<svg width="140" height="105" viewBox="0 0 140 105" fill="none" xmlns="http://www.w3.org/2000/svg">
<path d="M130.038 4.08245L89.6407 62.2571L49.9716 34.2565C49.6701 34.0419 49.3288 33.8894 48.9677 33.8081C48.6066 33.7268 48.2329 33.7182 47.8685 33.7829C47.504 33.8476 47.1561 33.9842 46.8451 34.1849C46.534 34.3855 46.2661 34.6461 46.057 34.9514L0.504744 100.536C0.211467 100.96 0.0390377 101.456 0.00588507 101.971C-0.0272676 102.486 0.0801031 103 0.31652 103.458C0.552937 103.917 0.909515 104.302 1.34814 104.574C1.78677 104.845 2.29096 104.993 2.80682 105C3.69651 105 4.56952 104.583 5.11446 103.794L49.0485 40.5271L88.7177 68.522C89.0201 68.7349 89.3615 68.886 89.7225 68.9666C90.0835 69.0472 90.4568 69.0557 90.821 68.9917C91.1853 68.9276 91.5333 68.7923 91.8451 68.5934C92.1569 68.3945 92.4263 68.136 92.6379 67.8327L134.654 7.34001L130.038 4.08245Z" fill="#A2F2C2"/>
<path d="M137.296 2.29711C137.235 1.93674 137.103 1.59209 136.907 1.2832C136.712 0.97432 136.457 0.707368 136.157 0.497873C135.858 0.288377 135.519 0.140519 135.162 0.0628967C134.805 -0.0147255 134.436 -0.0205623 134.076 0.0457253L119.118 2.68624C118.758 2.74867 118.414 2.88156 118.106 3.07728C117.797 3.273 117.53 3.5277 117.321 3.82675C117.111 4.12581 116.962 4.46333 116.883 4.81995C116.804 5.17657 116.797 5.54527 116.861 5.90488C116.922 6.26581 117.054 6.611 117.25 6.9203C117.445 7.2296 117.701 7.49683 118.001 7.7064C118.301 7.91596 118.64 8.06367 118.998 8.14091C119.356 8.21815 119.726 8.22337 120.086 8.15627L132.536 6.44966L132.569 6.43298L134.465 18.2236C134.516 18.594 134.642 18.9504 134.834 19.2714C135.026 19.5923 135.28 19.8713 135.583 20.0915C135.885 20.3116 136.229 20.4686 136.593 20.5528C136.958 20.6371 137.335 20.6469 137.704 20.5818C138.072 20.5167 138.424 20.3779 138.737 20.1738C139.051 19.9697 139.32 19.7045 139.528 19.394C139.737 19.0835 139.88 18.7341 139.951 18.3668C140.021 17.9995 140.016 17.6218 139.937 17.2563L137.296 2.29711Z" fill="#A2F2C2"/>
</svg>
