<svg width="80" height="80" viewBox="0 0 80 80" fill="none" xmlns="http://www.w3.org/2000/svg">
<path d="M79.2524 27.3043L69.5654 20.5739V38.913L80.0002 33.0434V28.7304C79.9983 28.4503 79.9294 28.1747 79.7993 27.9266C79.6693 27.6785 79.4817 27.4651 79.2524 27.3043Z" fill="#BE002E"/>
<path d="M69.5651 38.9217V38.913L52.1738 48.6956L79.9999 73.0435V33.0435L69.5651 38.913V38.9217Z" fill="#BE002E"/>
<path d="M10.4348 20.5739L0.747826 27.3043C0.518495 27.4651 0.33096 27.6785 0.20087 27.9266C0.07078 28.1747 0.00190757 28.4503 0 28.7304V33.0434L10.4348 38.913V20.5739Z" fill="#BE002E"/>
<path d="M40 0L30 6.95652H50L40 0Z" fill="#BE002E"/>
<path d="M27.8259 48.6957H52.1737L69.565 38.9131V8.69567C69.565 8.23443 69.3818 7.79207 69.0556 7.46592C68.7295 7.13977 68.2871 6.95654 67.8259 6.95654H12.1737C11.7125 6.95654 11.2701 7.13977 10.944 7.46592C10.6178 7.79207 10.4346 8.23443 10.4346 8.69567V38.9131L27.8259 48.6957Z" fill="#E6E7E8"/>
<path d="M10.4348 38.913V38.9217V38.913L0 33.0435V73.0435L27.8261 48.6956L10.4348 38.913Z" fill="#BE002E"/>
<path d="M10.4346 37.1739V38.913L27.8259 48.6956V46.9565L10.4346 37.1739Z" fill="#E0E0E2"/>
<path d="M0 31.3043V33.0435L10.4348 38.913V37.1739L0 31.3043Z" fill="#BE002E"/>
<path d="M69.5651 37.1739V38.913L52.1738 48.6956V46.9565L69.5651 37.1739Z" fill="#E0E0E2"/>
<path d="M80.0002 31.3043V33.0435L69.5654 38.913V37.1739L80.0002 31.3043Z" fill="#BE002E"/>
<path d="M27.8261 48.6957L0 73.0435C0 74.8885 0.732917 76.6579 2.03752 77.9625C3.34212 79.2671 5.11154 80 6.95652 80H73.0435C74.8885 80 76.6579 79.2671 77.9625 77.9625C79.2671 76.6579 80 74.8885 80 73.0435L52.1739 48.6957H27.8261Z" fill="#E10037"/>
<path d="M8.69531 37.9356L10.4344 38.913V20.5739L8.69531 21.7825V37.9356Z" fill="#BE002E"/>
<path d="M71.3046 37.9356L69.5654 38.913V20.5739L71.3046 21.7825V37.9356Z" fill="#BE002E"/>
<path d="M52.174 46.9565H27.8262V48.6957H52.174V46.9565Z" fill="#E0E0E2"/>
<path d="M39.9998 43.4782C48.6443 43.4782 55.652 36.4705 55.652 27.8261C55.652 19.1816 48.6443 12.1739 39.9998 12.1739C31.3554 12.1739 24.3477 19.1816 24.3477 27.8261C24.3477 36.4705 31.3554 43.4782 39.9998 43.4782Z" fill="#239350"/>
<path d="M38.2605 33.0435C37.7993 33.0434 37.357 32.8601 37.0309 32.534L33.5526 29.0557C33.2359 28.7277 33.0606 28.2884 33.0645 27.8324C33.0685 27.3764 33.2514 26.9402 33.5738 26.6178C33.8963 26.2953 34.3325 26.1124 34.7885 26.1084C35.2445 26.1045 35.6838 26.2798 36.0118 26.5966L38.2605 28.8453L45.7266 21.3792C46.0546 21.0624 46.4939 20.8871 46.9499 20.8911C47.4059 20.895 47.8421 21.0779 48.1645 21.4004C48.487 21.7228 48.6699 22.159 48.6738 22.615C48.6778 23.071 48.5025 23.5103 48.1857 23.8383L39.49 32.534C39.164 32.8601 38.7217 33.0434 38.2605 33.0435Z" fill="white"/>
</svg>
