<svg width="19" height="19" viewBox="0 0 19 19" fill="none" xmlns="http://www.w3.org/2000/svg">
<path fill-rule="evenodd" clip-rule="evenodd" d="M9.5 2.11111C5.41923 2.11111 2.11111 5.41923 2.11111 9.5C2.11111 13.5808 5.41923 16.8889 9.5 16.8889C13.5808 16.8889 16.8889 13.5808 16.8889 9.5C16.8889 5.41923 13.5808 2.11111 9.5 2.11111ZM0 9.5C0 4.25329 4.25329 0 9.5 0C14.7467 0 19 4.25329 19 9.5C19 14.7467 14.7467 19 9.5 19C4.25329 19 0 14.7467 0 9.5Z" fill="#BE002E"/>
<path fill-rule="evenodd" clip-rule="evenodd" d="M9.49998 4.07141C9.99966 4.07141 10.4047 4.55111 10.4047 5.14284V9.7857C10.4047 10.3774 9.99966 10.8571 9.49998 10.8571C9.00029 10.8571 8.59521 10.3774 8.59521 9.7857V5.14284C8.59521 4.55111 9.00029 4.07141 9.49998 4.07141Z" fill="#BE002E"/>
<path d="M9.49997 14.9286C10.2495 14.9286 10.8571 14.2197 10.8571 13.3453C10.8571 12.4708 10.2495 11.762 9.49997 11.762C8.75044 11.762 8.14282 12.4708 8.14282 13.3453C8.14282 14.2197 8.75044 14.9286 9.49997 14.9286Z" fill="#BE002E"/>
<path fill-rule="evenodd" clip-rule="evenodd" d="M9.49997 14.8297C10.2026 14.8297 10.7723 14.1651 10.7723 13.3453C10.7723 12.5255 10.2026 11.8609 9.49997 11.8609C8.79728 11.8609 8.22764 12.5255 8.22764 13.3453C8.22764 14.1651 8.79728 14.8297 9.49997 14.8297ZM10.8571 13.3453C10.8571 14.2197 10.2495 14.9286 9.49997 14.9286C8.75044 14.9286 8.14282 14.2197 8.14282 13.3453C8.14282 12.4708 8.75044 11.762 9.49997 11.762C10.2495 11.762 10.8571 12.4708 10.8571 13.3453Z" fill="#BE002E"/>
</svg>
