<svg width="175" height="39" viewBox="0 0 175 39" fill="none" xmlns="http://www.w3.org/2000/svg">
<g clip-path="url(#clip0_642_619)">
<path d="M23.7163 6.39927C26.9671 5.78829 29.5075 3.24599 30.1108 -0.000244141C26.8602 0.610727 24.3198 3.15303 23.7163 6.39927Z" fill="#2A89C9"/>
<path d="M16.0504 21.4875C16.279 25.8861 20.0371 29.2669 24.4444 29.0387C26.0112 28.9575 27.5194 28.4178 28.7809 27.4869C25.2251 24.8751 24.4637 19.8808 27.0807 16.3318C27.7409 15.4365 28.5812 14.6885 29.5479 14.1364C28.7975 13.1751 27.9333 12.3079 26.9742 11.5537C21.4709 7.16789 16.7622 3.52679 16.0297 0.475342C15.2938 3.52679 10.5886 7.16788 5.08536 11.5364C-0.417908 15.905 -6.19218e-05 21.0531 -6.19218e-05 21.0531C-0.0140756 25.4651 3.55821 29.0532 7.97884 29.0673C12.2515 29.0808 15.7816 25.7428 15.9984 21.4839C15.6968 27.5304 11.9893 32.8845 6.42897 35.3034H25.6197C20.0605 32.8851 16.3532 27.5327 16.0504 21.4875Z" fill="#2A89C9"/>
<path d="M87.8213 27.4838V9.59913H91.991C92.5716 9.59828 93.1508 9.65951 93.7183 9.78181C94.2623 9.89438 94.775 10.1238 95.221 10.454C95.6869 10.8158 96.0519 11.2906 96.2816 11.8332C96.5747 12.5549 96.7113 13.3306 96.6824 14.1089V17.0568C96.7113 17.8351 96.5747 18.6107 96.2816 19.3325C96.048 19.8729 95.6835 20.3467 95.221 20.7118C94.7781 21.051 94.2645 21.2866 93.7183 21.4013C93.1508 21.5236 92.5716 21.5849 91.991 21.584H90.799V27.4836H87.8213V27.4838ZM90.7992 18.9638H91.8634C92.3701 19.0115 92.876 18.8635 93.2764 18.55C93.5619 18.2742 93.7048 17.8145 93.7048 17.1708V14.023C93.7048 13.3494 93.5619 12.8757 93.2764 12.6023C92.876 12.2888 92.3701 12.1407 91.8634 12.1885H90.7992V18.9638Z" fill="#2A89C9"/>
<path d="M104.397 26.4527C103.706 27.1423 102.709 27.487 101.405 27.487C100.102 27.487 99.0952 27.1423 98.3859 26.4527C97.695 25.7631 97.3496 24.6863 97.3496 23.222V18.3569C97.3496 16.8928 97.695 15.816 98.3859 15.1264C99.0769 14.4368 100.083 14.092 101.405 14.092C102.702 14.092 103.699 14.4368 104.397 15.1264C105.095 15.816 105.44 16.8939 105.433 18.3605V23.2222C105.443 24.6861 105.097 25.7631 104.397 26.4527ZM101.405 16.3432C100.99 16.3029 100.58 16.4554 100.293 16.757C100.039 17.1193 99.9174 17.5571 99.9474 17.9982V23.5838C99.9174 24.0248 100.039 24.4627 100.293 24.825C100.58 25.1265 100.99 25.279 101.405 25.2388C102.356 25.2388 102.832 24.6872 102.832 23.5838V17.9946C102.83 16.8912 102.354 16.3396 101.405 16.3396V16.3432Z" fill="#2A89C9"/>
<path d="M109.741 18.9637C109.972 18.4716 110.278 17.8969 110.66 17.2397L112.446 14.0848H114.958L111.932 19.6741L115.22 27.4837H112.474L110.221 21.9668L109.109 23.8806V27.4837H106.466V9.58521H109.109V20.3221C109.296 19.9084 109.507 19.4556 109.741 18.9637Z" fill="#2A89C9"/>
<path d="M117.874 23.5805C117.844 24.0214 117.966 24.4593 118.219 24.8217C118.507 25.124 118.919 25.2768 119.335 25.2355C120.286 25.2355 120.761 24.6839 120.758 23.5805V23.3909H123.176V23.2184C123.176 24.6851 122.831 25.7631 122.14 26.4527C121.449 27.1423 120.469 27.487 119.2 27.487C117.906 27.487 116.921 27.1423 116.246 26.4527C115.572 25.7631 115.235 24.6863 115.238 23.222V18.3569C115.238 16.8928 115.574 15.816 116.246 15.1264C116.919 14.4368 117.903 14.092 119.2 14.092C120.478 14.092 121.458 14.4368 122.14 15.1264C122.822 15.816 123.167 16.8939 123.176 18.3605V21.5671H117.874V23.5805H117.874ZM120.748 19.4153V17.9948C120.748 16.8914 120.274 16.3398 119.325 16.3398C118.909 16.299 118.497 16.4515 118.209 16.7536C117.955 17.1159 117.833 17.5537 117.863 17.9948V19.4153H120.748Z" fill="#2A89C9"/>
<path d="M124.147 14.0917H126.61V16.1604C126.632 16.0389 126.675 15.9223 126.738 15.8157C126.787 15.7046 126.842 15.5963 126.904 15.4916C127.026 15.2835 127.172 15.0904 127.339 14.9158C128.034 14.1189 129.16 13.8502 130.141 14.2468C130.465 14.3628 130.748 14.57 130.956 14.8433C131.205 15.1784 131.381 15.561 131.474 15.9673C131.607 16.5438 131.667 17.1345 131.654 17.7259V18.4569H129.236V17.9984C129.236 17.3593 129.132 16.9237 128.925 16.6915C128.631 16.3765 128.181 16.261 127.771 16.3951C127.371 16.5919 127.072 16.947 126.946 17.3743C126.853 17.6332 126.808 17.9063 126.811 18.1811V27.4905H124.168L124.147 14.0917Z" fill="#2A89C9"/>
<path d="M46.0061 20.167C45.9025 19.3923 45.8034 18.5877 45.7091 17.7535C45.6146 16.9189 45.5409 16.0697 45.4879 15.2056C45.4027 16.0676 45.321 16.9169 45.2427 17.7535C45.1644 18.5901 45.0733 19.3947 44.9698 20.167L43.961 27.4837H40.4613L37.7944 9.58179H40.8241L41.8605 16.626C41.9987 17.6604 42.1241 18.6386 42.2371 19.5603C42.3499 20.4819 42.449 21.4601 42.5341 22.4944C42.6032 21.4601 42.6896 20.4819 42.7932 19.5603C42.8968 18.6386 43.027 17.6513 43.1835 16.5984L44.2199 9.58179H47.1737L48.1825 16.626C48.3208 17.6604 48.4416 18.6386 48.5453 19.5603C48.6489 20.4819 48.7434 21.4601 48.8287 22.4944C48.9162 21.4601 49.0071 20.4819 49.1016 19.5603C49.1961 18.6386 49.3215 17.6513 49.4782 16.5984L50.5146 9.58179H53.2611L50.594 27.4872H47.0426L46.0061 20.167Z" fill="#303030"/>
<path d="M60.3012 26.4527C59.6103 27.1423 58.6131 27.487 57.3095 27.487C56.0059 27.487 54.9995 27.1423 54.2902 26.4527C53.5993 25.7631 53.2539 24.6863 53.2539 23.222V18.3569C53.2539 16.8928 53.5993 15.816 54.2902 15.1264C54.9812 14.4368 55.9876 14.092 57.3095 14.092C58.6063 14.092 59.6035 14.4368 60.3012 15.1264C60.9992 15.816 61.3446 16.8939 61.3376 18.3605V23.2222C61.3446 24.6861 60.9992 25.7631 60.3012 26.4527ZM57.3095 16.3432C56.8947 16.3029 56.4844 16.4554 56.1971 16.757C55.9435 17.1193 55.8217 17.5571 55.8517 17.9982V23.5838C55.8217 24.0248 55.9435 24.4627 56.1971 24.825C56.4844 25.1265 56.8947 25.279 57.3095 25.2388C58.2607 25.2388 58.7363 24.6872 58.7363 23.5838V17.9946C58.7319 16.8912 58.2551 16.3396 57.3063 16.3396L57.3095 16.3432Z" fill="#303030"/>
<path d="M62.3604 14.0917H64.8237V16.1604C64.8457 16.0389 64.889 15.9223 64.9515 15.8157C65.0006 15.7046 65.0558 15.5963 65.1173 15.4916C65.2398 15.2835 65.3859 15.0904 65.5526 14.9158C66.2478 14.1189 67.373 13.8502 68.3544 14.2468C68.6783 14.3628 68.9615 14.57 69.1698 14.8433C69.4183 15.1784 69.5947 15.561 69.688 15.9673C69.8204 16.5438 69.8807 17.1345 69.8678 17.7259V18.4569H67.4495V17.9984C67.4495 17.3593 67.3458 16.9237 67.1387 16.6915C66.8447 16.3765 66.3944 16.261 65.9848 16.3951C65.5844 16.5919 65.2849 16.947 65.1592 17.3743C65.0669 17.6332 65.0212 17.9063 65.0243 18.1811V27.4905H62.3815L62.3604 14.0917Z" fill="#303030"/>
<path d="M70.9624 9.58179H73.6053V27.4837H70.9624V9.58179Z" fill="#303030"/>
<path d="M148.313 23.5805C148.283 24.0214 148.404 24.4593 148.658 24.8217C148.946 25.124 149.358 25.2768 149.774 25.2355C150.725 25.2355 151.2 24.6839 151.197 23.5805V23.3909H153.615V23.2184C153.615 24.6851 153.27 25.7631 152.579 26.4527C151.888 27.1423 150.908 27.487 149.639 27.487C148.345 27.487 147.36 27.1423 146.685 26.4527C146.011 25.7631 145.674 24.6863 145.677 23.222V18.3569C145.677 16.8928 146.013 15.816 146.685 15.1264C147.358 14.4368 148.342 14.092 149.639 14.092C150.917 14.092 151.897 14.4368 152.579 15.1264C153.261 15.816 153.606 16.8939 153.615 18.3605V21.5671H148.313V23.5805H148.313ZM151.187 19.4153V17.9948C151.187 16.8914 150.712 16.3398 149.764 16.3398C149.348 16.299 148.936 16.4515 148.648 16.7536C148.394 17.1159 148.272 17.5537 148.302 17.9948V19.4153H151.187Z" fill="#303030"/>
<path d="M140.101 9.58204C140.682 9.58135 141.261 9.64259 141.828 9.76471C142.372 9.87729 142.885 10.1069 143.331 10.4371C143.798 10.7984 144.165 11.2732 144.395 11.8163C144.688 12.538 144.825 13.3135 144.796 14.092V22.9844C144.825 23.7625 144.688 24.538 144.395 25.2601C144.165 25.803 143.798 26.2778 143.331 26.6393C142.887 26.9756 142.374 27.211 141.828 27.3289C141.261 27.451 140.682 27.5122 140.101 27.5115H135.876V9.58204H140.101ZM138.857 24.8979H139.97C140.477 24.9457 140.982 24.7976 141.383 24.4841C141.669 24.2083 141.811 23.7347 141.811 23.0637V14.0023C141.811 13.3289 141.669 12.8552 141.383 12.5818C140.982 12.2683 140.477 12.1202 139.97 12.168H138.857V24.8979Z" fill="#303030"/>
<path d="M163.63 9.58179H166.273V27.4837H163.63V9.58179Z" fill="#303030"/>
<path d="M171.974 22.5703C171.573 22.1586 171.091 21.8355 170.557 21.622C169.666 21.2186 168.712 20.8497 168.008 20.1464C166.999 19.1361 166.899 17.6053 167.372 16.3122C167.699 15.3949 168.43 14.678 169.355 14.3678C171.324 13.6782 174.192 14.1815 174.824 16.4847C174.936 16.9357 174.988 17.3993 174.979 17.8639V18.3224H172.561V17.8915C172.561 17.3501 172.44 16.733 171.967 16.4019C171.422 16.0502 170.711 16.0922 170.212 16.5053C169.78 16.9682 169.637 17.63 169.838 18.2292C170.06 18.7602 170.647 19.0845 171.138 19.319C172.063 19.7602 173.055 20.1017 173.791 20.8464C174.609 21.645 175.054 22.7494 175.017 23.891C174.969 24.8494 174.706 25.8839 173.981 26.5597C173.255 27.2357 172.336 27.5045 171.093 27.5045C169.849 27.5045 168.864 27.1598 168.191 26.5219C167.517 25.8839 167.182 24.8426 167.182 23.4462V23.1015H169.6V23.6877C169.6 24.5429 169.97 25.3533 170.927 25.4116C172.35 25.4976 172.765 23.4943 171.974 22.5703Z" fill="#303030"/>
<path d="M80.2521 9.58179H80.1483V15.7469C79.9105 15.2683 79.5538 14.8588 79.112 14.5572C78.6378 14.2403 78.0764 14.0776 77.5057 14.0918C77.1137 14.0883 76.7237 14.1503 76.3518 14.2744C76.0013 14.3923 75.6888 14.6019 75.4468 14.8813C75.1689 15.2187 74.9662 15.6112 74.8525 16.033C74.6924 16.6132 74.6181 17.2138 74.6314 17.8154V23.7633C74.6181 24.365 74.6924 24.9654 74.8525 25.5459C74.9664 25.9675 75.169 26.36 75.4468 26.6973C75.6877 26.9762 75.9991 27.1857 76.3484 27.3044C76.7203 27.4286 77.1101 27.4903 77.5022 27.4871C78.121 27.5053 78.7283 27.3187 79.2294 26.9561C79.7016 26.6151 80.062 26.1423 80.2658 25.5975V27.4837H82.7877V9.58179H80.2521ZM80.1482 23.4011C80.1632 23.8775 80.0022 24.3427 79.6958 24.708C79.4219 25.0481 79.0067 25.2441 78.5696 25.2388C78.2116 25.2671 77.8585 25.1418 77.5987 24.8941C77.3822 24.6642 77.274 24.2287 77.274 23.5874V18.0017C77.274 17.3627 77.3824 16.9271 77.5987 16.695C77.8585 16.4473 78.2116 16.3218 78.5696 16.3502C79.0067 16.3453 79.4219 16.5409 79.6958 16.8812C79.9998 17.2438 80.1608 17.7049 80.1482 18.1777V23.4011Z" fill="#303030"/>
<path d="M162.477 24.577V18.3328C162.477 16.8686 162.153 15.7951 161.506 15.1124C160.859 14.4297 159.887 14.0849 158.59 14.0781C157.296 14.0781 156.316 14.4228 155.65 15.1124C154.985 15.802 154.652 16.8754 154.652 18.3328V18.6191H157.112V17.995C157.082 17.5546 157.191 17.1159 157.423 16.74C157.684 16.4306 158.083 16.2704 158.487 16.3124C158.882 16.2743 159.27 16.4345 159.523 16.74C160.045 17.4525 159.89 18.4521 159.178 18.9744C158.678 19.2891 158.152 19.5603 157.606 19.7846C157.125 20.0268 156.663 20.3045 156.224 20.6156C155.347 21.1938 154.708 22.0677 154.424 23.0776C154.103 24.4153 154.331 26.2945 155.599 27.0806C156.648 27.6721 157.944 27.6131 158.936 26.9288C159.394 26.5773 159.737 26.0971 159.92 25.5496V27.4772H162.46V25.6876C162.477 25.3528 162.487 24.9804 162.477 24.577ZM159.834 23.4116C159.849 23.8856 159.694 24.3493 159.395 24.7184C159.12 25.0637 158.698 25.2603 158.255 25.2492C157.552 25.2871 156.952 24.7488 156.914 24.0473C156.911 23.9963 156.911 23.9451 156.915 23.8943C156.945 22.9271 157.501 22.0532 158.366 21.6153C158.846 21.3533 159.364 21.1671 159.837 20.8981C159.83 21.7219 159.834 22.5703 159.834 23.4116Z" fill="#303030"/>
<path d="M42.9901 33.011C44.5813 32.9317 45.9355 34.155 46.015 35.7431C46.0191 35.8275 46.0196 35.9123 46.0163 35.9969C46.0555 37.6074 44.7792 38.9448 43.1656 38.9839C43.1071 38.9854 43.0485 38.9851 42.9901 38.9829C41.4028 39.0623 40.0515 37.8423 39.9718 36.2581C39.9676 36.1711 39.9671 36.0839 39.9706 35.9969C39.9278 34.3903 41.1979 33.0531 42.8076 33.0101C42.8682 33.0084 42.9292 33.0088 42.9901 33.011ZM42.9901 38.0347C44.2096 38.0347 44.9385 37.1418 44.9385 36.0003C45.0026 34.9283 44.1836 34.0073 43.1094 33.9433C42.0351 33.8793 41.1124 34.6967 41.0483 35.7687C41.0437 35.8458 41.0437 35.9231 41.0483 36.0002C41.0063 37.081 41.8502 37.9912 42.933 38.0331C42.9521 38.034 42.9711 38.0345 42.9901 38.0347Z" fill="#C7C8CA"/>
<path d="M51.6644 38.8966L48.4722 34.8832V38.8966H47.5186V33.1006H48.3303L51.5225 37.1313V33.1006H52.476V38.8932L51.6644 38.8966Z" fill="#C7C8CA"/>
<path d="M54.356 33.1003H55.3923V37.9276H58.004V38.8792H54.356V33.1003Z" fill="#C7C8CA"/>
<path d="M59.2441 33.1003H60.2805V38.893H59.2441V33.1003Z" fill="#C7C8CA"/>
<path d="M66.3297 38.8966L63.1375 34.8832V38.8966H62.1841V33.1006H62.9958L66.1881 37.1313V33.1006H67.1415V38.8932L66.3297 38.8966Z" fill="#C7C8CA"/>
<path d="M69.0277 33.1003H72.3857V34.0519H70.0468V35.4932H72.1196V36.4448H70.0468V37.9274H72.465V38.879H69.0103L69.0277 33.1003Z" fill="#C7C8CA"/>
<path d="M76.3828 38.8966V33.1006C76.7073 33.1006 77.6264 33.1006 78.034 33.1006C79.7406 33.1006 80.2796 34.0109 80.2796 34.9625C80.2796 35.9141 79.5403 36.8418 78.1584 36.8418C77.9857 36.8418 77.6541 36.8418 77.4055 36.8176V38.9106L76.3828 38.8966ZM77.4193 34.0694V35.8486C77.6589 35.8745 77.8999 35.8883 78.1414 35.8899C78.7458 35.8899 79.2192 35.6004 79.2192 34.9555C79.2192 34.3106 78.8461 34.052 78.1482 34.052C77.9238 34.0384 77.6748 34.0452 77.3848 34.0556L77.4193 34.0694Z" fill="#C7C8CA"/>
<path d="M84.3841 33.011C85.9753 32.9317 87.3293 34.155 87.4088 35.7431C87.4129 35.8275 87.4134 35.9123 87.4103 35.9969C87.4495 37.6074 86.1732 38.9448 84.5594 38.9839C84.501 38.9854 84.4423 38.9851 84.3841 38.9829C82.7968 39.0623 81.4455 37.8423 81.3658 36.2581C81.3615 36.1711 81.3612 36.0839 81.3646 35.9969C81.3216 34.3903 82.5917 33.0531 84.2015 33.0101C84.2622 33.0084 84.323 33.0088 84.3841 33.011ZM84.3841 38.0347C85.6036 38.0347 86.3323 37.1418 86.3323 36.0003C86.3964 34.9283 85.5776 34.0073 84.5033 33.9433C83.4292 33.8793 82.5064 34.6967 82.4423 35.7687C82.4379 35.8458 82.4379 35.9231 82.4423 36.0002C82.4003 37.081 83.244 37.9912 84.327 38.0331C84.3461 38.034 84.3649 38.0345 84.3841 38.0347Z" fill="#C7C8CA"/>
<path d="M88.9097 33.1003H89.946V35.8588L92.233 33.1003H93.4593L91.0722 35.7968L93.6078 38.9H92.3158L89.946 35.9138V38.9H88.9097V33.1003Z" fill="#C7C8CA"/>
<path d="M94.7891 33.1003H98.1469V34.0519H95.808V35.4932H97.8808V36.4448H95.808V37.9274H98.2262V38.879H94.7715L94.7891 33.1003Z" fill="#C7C8CA"/>
<path d="M99.8398 38.8966V33.1006H101.605C103.187 33.1006 103.713 33.8867 103.713 34.8902C103.745 35.6275 103.291 36.2997 102.593 36.5452L104.41 38.9104H103.174L101.567 36.7279H100.876V38.8966H99.8398ZM100.876 34.0694V35.7933H101.54C102.127 35.7933 102.652 35.4969 102.652 34.9004C102.652 34.4452 102.403 34.0556 101.574 34.0556C101.367 34.0384 101.135 34.0452 100.876 34.0556V34.0694Z" fill="#C7C8CA"/>
<path d="M107.886 38.8966V33.1006H109.651C111.233 33.1006 111.758 33.8867 111.758 34.8902C111.791 35.6275 111.337 36.2997 110.639 36.5452L112.456 38.9104H111.22L109.62 36.7415H108.909V38.9104L107.886 38.8966ZM108.922 34.0694V35.7933H109.586C110.173 35.7933 110.698 35.4969 110.698 34.9004C110.698 34.4452 110.449 34.0556 109.62 34.0556C109.409 34.0384 109.168 34.0452 108.905 34.0556L108.922 34.0694Z" fill="#C7C8CA"/>
<path d="M116.108 33.011C117.699 32.9317 119.054 34.155 119.133 35.7431C119.137 35.8275 119.138 35.9123 119.134 35.9969C119.174 37.6074 117.897 38.9448 116.284 38.9839C116.225 38.9854 116.166 38.9851 116.108 38.9829C114.521 39.0623 113.17 37.8423 113.09 36.2581C113.086 36.1711 113.085 36.0839 113.089 35.9969C113.046 34.3903 114.316 33.0531 115.926 33.0101C115.987 33.0084 116.047 33.0088 116.108 33.011ZM116.108 38.0347C117.328 38.0347 118.057 37.1418 118.057 36.0003C118.121 34.9283 117.302 34.0073 116.228 33.9433C115.153 33.8793 114.23 34.6967 114.167 35.7687C114.162 35.8458 114.162 35.9231 114.167 36.0002C114.124 37.081 114.968 37.9912 116.051 38.0331C116.07 38.034 116.089 38.0345 116.108 38.0347Z" fill="#C7C8CA"/>
<path d="M125.115 38.3345C124.601 38.7799 123.936 39.0131 123.256 38.9861C121.48 38.9861 120.264 37.8034 120.264 36.0002C120.264 34.3383 121.3 33.0142 123.232 33.0142C123.872 32.9893 124.499 33.1976 124.997 33.6004L124.541 34.3555C124.157 34.0898 123.699 33.9535 123.232 33.966C122.154 33.966 121.342 34.7451 121.342 36.0003C121.28 37.0611 122.091 37.9712 123.154 38.0332C123.219 38.0369 123.284 38.0374 123.349 38.0347C123.848 38.0376 124.334 37.8749 124.731 37.5726L125.115 38.3345Z" fill="#C7C8CA"/>
<path d="M126.393 33.1003H127.429V35.8588L129.719 33.1003H130.932L128.545 35.7968L131.081 38.9H129.788L127.419 35.9138V38.9H126.382L126.393 33.1003Z" fill="#C7C8CA"/>
<path d="M131.934 34.6108C131.934 33.7417 132.625 33.0144 133.741 33.0144C134.356 32.9841 134.955 33.2089 135.399 33.6351L134.853 34.3971C134.587 34.1091 134.209 33.9515 133.817 33.9662C133.312 33.9662 133.005 34.2214 133.005 34.6039C133.005 35.8039 135.634 35.4247 135.634 37.3624C135.634 38.3382 134.781 39.0003 133.693 39.0003C132.946 39.0003 132.076 38.6762 131.792 38.09L132.373 37.4004C132.697 37.8063 133.186 38.0465 133.707 38.0555C134.187 38.0555 134.553 37.8142 134.553 37.3659C134.563 36.2037 131.934 36.4967 131.934 34.6108Z" fill="#C7C8CA"/>
<path d="M136.494 33.1003H141.296V34.0519H139.396V38.8792H138.36V34.0519H136.494V33.1003H136.494Z" fill="#C7C8CA"/>
<path d="M143.594 33.1003H144.488L146.941 38.9102H145.856L145.252 37.4309H142.771L142.167 38.9102H141.13L143.594 33.1003ZM143.162 36.476H144.861L144.015 34.4072L143.162 36.476Z" fill="#C7C8CA"/>
<path d="M148.129 38.8966V33.1006H149.895C151.477 33.1006 152.002 33.8867 152.002 34.8902C152.035 35.6275 151.58 36.2997 150.883 36.5452L152.7 38.9104H151.463L149.864 36.7415H149.152V38.9104L148.129 38.8966ZM149.166 34.0694V35.7933H149.829C150.416 35.7933 150.942 35.4969 150.942 34.9004C150.942 34.4452 150.693 34.0556 149.864 34.0556C149.656 34.0384 149.425 34.0452 149.152 34.0556L149.166 34.0694Z" fill="#C7C8CA"/>
<path d="M153.571 34.6108C153.571 33.7417 154.261 33.0144 155.377 33.0144C155.992 32.9841 156.592 33.2089 157.035 33.6351L156.497 34.3936C156.231 34.1056 155.852 33.9481 155.46 33.9626C154.956 33.9626 154.649 34.2178 154.649 34.6005C154.649 35.8003 157.277 35.4211 157.277 37.359C157.277 38.3348 156.424 38.9967 155.336 38.9967C154.59 38.9967 153.719 38.6727 153.436 38.0864L154.016 37.3968C154.341 37.8028 154.83 38.0429 155.35 38.052C155.83 38.052 156.196 37.8106 156.196 37.3624C156.196 36.2037 153.571 36.4967 153.571 34.6108Z" fill="#C7C8CA"/>
</g>
<defs>
<clipPath id="clip0_642_619">
<rect width="175" height="39" fill="white"/>
</clipPath>
</defs>
</svg>
