<svg width="73" height="73" viewBox="0 0 73 73" fill="none" xmlns="http://www.w3.org/2000/svg">
<path d="M69.9627 17.7464C72.5835 15.1189 73.6059 11.2939 72.6454 7.70927L66.2961 14.0584L60.7803 12.2197L58.9416 6.70371L65.2906 0.354534C61.7059 -0.605992 57.8813 0.417039 55.2537 3.03729C52.5383 5.75271 51.681 9.58609 52.5963 13.0491L13.0491 52.5963C9.58612 51.6813 5.75259 52.539 3.03717 55.2536C0.416398 57.8812 -0.605754 61.7061 0.354512 65.2908L6.70376 58.942L12.2196 60.7807L14.0583 66.2964L7.70927 72.6456C11.2937 73.6061 15.122 72.5883 17.7462 69.9631C20.4616 67.2477 21.3189 63.4139 20.4036 59.9507L59.9508 20.4038C63.4138 21.3191 67.2473 20.4608 69.9627 17.7464Z" fill="#D5E5F2"/>
<path d="M31.84 6.07765V12.1618C29.1572 12.7663 26.5956 13.8187 24.2627 15.275L19.9815 10.9937L12.2925 18.683L16.5839 22.969C15.1211 25.2989 14.0618 27.8589 13.4504 30.5412H7.37646V41.4195H13.4606C14.0651 44.1023 15.1176 46.6642 16.5738 48.997L12.2925 53.278L19.9815 60.9669L24.2678 56.6755C26.5977 58.1383 29.1577 59.1976 31.84 59.809V65.883H42.7183V59.7992C45.4011 59.1946 47.9627 58.1419 50.2955 56.6857L54.5768 60.9669L62.2657 53.278L57.9743 48.9916C59.4371 46.6617 60.4965 44.1017 61.1078 41.4195H67.1818V30.5412H61.0977C60.4932 27.8584 59.4407 25.2968 57.9845 22.9639L60.4476 20.5008C60.2824 20.4644 60.1136 20.4462 59.9499 20.4046L52.6926 27.6619C54.0771 30.2164 54.8048 33.0751 54.8104 35.9806C54.8107 38.283 54.3574 40.5626 53.4765 42.6898C52.5955 44.8169 51.3042 46.7498 49.6762 48.3778C48.0482 50.0057 46.1155 51.2972 43.9884 52.1781C41.8613 53.0591 39.5814 53.5122 37.2791 53.5119C34.9768 53.5122 32.697 53.0591 30.5699 52.1781C28.4428 51.2972 26.51 50.0057 24.882 48.3778C23.2541 46.7498 21.9627 44.8169 21.0818 42.6898C20.2009 40.5626 19.7476 38.283 19.7479 35.9806C19.7476 33.6783 20.2009 31.3986 21.0818 29.2715C21.9627 27.1444 23.2541 25.2115 24.882 23.5835C26.51 21.9555 28.4428 20.6641 30.5699 19.7831C32.697 18.9022 34.9768 18.4491 37.2791 18.4494C40.053 18.4561 42.7856 19.121 45.2525 20.3894L52.5961 13.0509C52.5909 13.0249 52.5912 13.0091 52.586 12.9909L50.2904 15.2864C47.9605 13.8236 45.4006 12.7643 42.7183 12.1529V6.07892H31.84V6.07765Z" fill="#239350"/>
</svg>
