<svg width="23" height="22" viewBox="0 0 23 22" fill="none" xmlns="http://www.w3.org/2000/svg">
<path fill-rule="evenodd" clip-rule="evenodd" d="M18.2747 19.179V2.7234C16.3361 1.02807 13.7933 0 11.0091 0C4.92895 0 0 4.90301 0 10.9512C0 16.9994 4.92895 21.9024 11.0091 21.9024C13.7933 21.9024 16.3361 20.8743 18.2747 19.179Z" fill="white"/>
<path fill-rule="evenodd" clip-rule="evenodd" d="M16.7697 1.61655L16.4564 1.61994L15.4365 2.69181L13.7597 0.992188L11.4198 3.28162L9.75602 1.55456L5.07422 5.85294L8.22388 9.20356L7.1508 10.2575L9.87124 13.2348L8.9582 14.6117L12.9483 19.0814L15.6018 16.8523L17.6824 19.1525H18.3047C20.5825 17.1461 22.0184 14.2153 22.0184 10.9508C22.0184 7.00328 19.9188 3.5436 16.7697 1.61655Z" fill="#282828"/>
<path fill-rule="evenodd" clip-rule="evenodd" d="M17.0523 16.7565L18.867 14.8458L20.6182 16.5521L18.9147 18.3478L17.0523 16.7565ZM19.5133 11.5671L20.5304 10.3489L21.5854 11.5558L20.6312 12.8478L19.5133 11.5671ZM15.2494 12.6706L17.1542 10.9193L18.8924 12.7717L17.0957 14.6507L15.2494 12.6706ZM10.7595 14.7326L13.4872 12.4115L15.775 14.8265L13.4101 17.1906L10.7595 14.7326ZM17.7759 7.85566L18.8859 6.60158L20.342 7.93819L19.1066 9.14708L17.7759 7.85566ZM13.7426 8.53244L15.5658 6.98759L17.2406 8.55242L15.6042 10.3733L13.7426 8.53244ZM9.07967 10.3747L11.5435 8.10769L13.6532 10.3295L11.4287 12.8213L9.07967 10.3747ZM16.2618 4.1027L17.2047 2.94971L18.3341 3.97214L17.4931 5.12937L16.2618 4.1027ZM11.8311 4.86746L13.7765 3.0623L15.6048 4.79784L13.7432 6.65687L11.8311 4.86746ZM7.15381 6.0951L9.72373 3.78267L12.1291 6.11024L9.67241 8.38171L7.15381 6.0951Z" fill="white"/>
</svg>
