<svg width="22" height="22" viewBox="0 0 22 22" fill="none" xmlns="http://www.w3.org/2000/svg">
<path d="M20 0H2C1.46957 0 0.960859 0.210714 0.585786 0.585786C0.210714 0.960859 0 1.46957 0 2V20C0 20.5304 0.210714 21.0391 0.585786 21.4142C0.960859 21.7893 1.46957 22 2 22H20C20.5304 22 21.0391 21.7893 21.4142 21.4142C21.7893 21.0391 22 20.5304 22 20V2C22 1.46957 21.7893 0.960859 21.4142 0.585786C21.0391 0.210714 20.5304 0 20 0ZM10.5 19C8.69984 19.0366 6.91385 18.6746 5.27 17.94C5.18923 17.8982 5.1214 17.8351 5.07382 17.7575C5.02625 17.68 5.00072 17.591 5 17.5V14.5C4.9973 14.4218 5.01298 14.3441 5.04578 14.2731C5.07858 14.202 5.12759 14.1397 5.18887 14.0911C5.25015 14.0424 5.32198 14.0089 5.3986 13.9931C5.47521 13.9772 5.55447 13.9796 5.63 14C7.22766 14.448 8.85508 14.7822 10.5 15C11.37 15 12 14.58 12 14C12 13.68 12 13 10.5 13C8.37 13 5 11.64 5 8C5 4.75 8.09 3 11 3C12.785 2.9935 14.5543 3.33309 16.21 4C16.2976 4.04052 16.3715 4.10551 16.423 4.18713C16.4745 4.26875 16.5012 4.36352 16.5 4.46V7.46C16.5 7.54027 16.4806 7.61936 16.4436 7.69057C16.4065 7.76177 16.3529 7.82302 16.2871 7.86912C16.2214 7.91521 16.1456 7.94481 16.066 7.95541C15.9864 7.96601 15.9055 7.95729 15.83 7.93C14.4299 7.44509 12.9758 7.13278 11.5 7C10 7 10 7.75 10 8C10 8.25 10 9 12.5 9C14.74 9 17 10.72 17 14C17 17 14.45 19 10.5 19Z" fill="white"/>
</svg>
